<svg aria-hidden="true" style="width:0;height:0;position:absolute;overflow:hidden" xmlns="http://www.w3.org/2000/svg"><defs><symbol id="icon-odyssey" viewBox="0 0 206 32"><path d="M25.312 19.43c-.245 0-.474.107-.688.322-.184.216-.384.445-.598.691a6.243 6.243 0 0 1-.597.691 1.01 1.01 0 0 1-.736.322c-.274 0-.55-.077-.826-.23l-.736-.552a6.79 6.79 0 0 0-.747-.49l-.034-.018a1.534 1.534 0 0 0-.872-.275c-.184 0-.398.045-.643.138a4.064 4.064 0 0 0-.752.378l.016-.01a2.989 2.989 0 0 0-.547.503l-.004.004a.86.86 0 0 0-.23.55v.002c0 .061.016.154.048.277.059.091.136.122.229.091.245-.307.536-.568.872-.782s.704-.322 1.104-.322c.336 0 .779.138 1.331.414l1.286.643a.642.642 0 0 1-.336.094l-.033-.001h.002-.275c-.368 0-.704-.077-1.011-.23a1.905 1.905 0 0 0-.995-.277h-.016.001a1.71 1.71 0 0 0-.782.186c-.263.1-.49.224-.697.374l.009-.006c.184.123.352.184.506.184.135-.009.26-.042.375-.096l-.006.003a.872.872 0 0 1 .458-.138h.001c.368 0 .72.061 1.056.184s.704.184 1.102.184c.061 0 .198-.016.413-.045.245-.062.4-.062.459 0 0 .091-.106.184-.32.275a1.376 1.376 0 0 1-.454.139l-.007.001a4.25 4.25 0 0 1-.918-.093 4.132 4.132 0 0 0-.883-.093H19.8h.002a2.23 2.23 0 0 0-.459.048 5.66 5.66 0 0 0-.459.136c-.062 0-.107.032-.139.093v.184c.184.093.445.154.782.184.336.032.611.046.826.046h.643c.184 0 .352-.016.506-.046s.307-.077.459-.138c.154-.061.352-.138.598-.23h.091v.046c0 .061-.077.154-.229.277-.224.134-.389.239-.551.349l.045-.029-.552.278a1.414 1.414 0 0 1-.361.09l-.007.001h-1.102v.507h.046c.613 0 1.088-.062 1.424-.184.368-.154.797-.43 1.286-.829l.184.184c-.429.429-.874.72-1.333.874-.39.116-.887.228-1.392.312l-.078.011.414.506c.368.032.781-.091 1.24-.368.49-.307.858-.582 1.104-.829.122-.03.182.016.182.139 0 .152-.107.322-.322.506a8.028 8.028 0 0 1-.658.489l-.03.019a9.41 9.41 0 0 1-.763.388l-.066.027a3.943 3.943 0 0 1-.567.222l-.03.008c0 .091-.061.168-.184.229l.184.277a4.277 4.277 0 0 0 1.931-1.061l-.002.002c.069-.067.144-.127.225-.18l.006-.004c.091-.091.168-.138.229-.138.123 0 .184.061.184.184 0 .154-.107.322-.32.506a4.379 4.379 0 0 1-.668.449l-.023.012c-.219.14-.475.279-.741.4l-.039.016c-.275.122-.474.214-.597.275 0 .245-.016.445-.046.598v.046h.048c.488-.246.872-.491 1.147-.736.306-.246.674-.538 1.102-.875.032 0 .061-.016.091-.048.032-.029.062-.045.093-.045s.046.032.046.093v.184c0 .184-.107.384-.322.598a7.98 7.98 0 0 1-.718.631l-.018.013a8.17 8.17 0 0 1-.872.506 4.202 4.202 0 0 1-.66.314l-.03.01a.943.943 0 0 1-.091.414c-.032.122-.139.198-.322.229l.091.139c.154.03.368-.032.643-.184.275-.184.566-.384.874-.598.304-.246.581-.491.826-.736.277-.246.475-.416.598-.507l.045.091v.093c0 .307-.184.613-.55.92a9.814 9.814 0 0 1-1.195.829c-.497.283-.886.526-1.267.782l.073-.046c-.336.246-.506.461-.506.646 0 .091.016.198.046.322.061.093.122.2.182.323.111-.262.284-.48.502-.642l.004-.003c.181-.132.391-.27.607-.397l.036-.019c.245-.152.475-.291.688-.413.248-.156.46-.339.642-.55l.003-.004c.122-.154.245-.322.368-.506.122-.184.245-.338.368-.461l.045.138c0 .4-.123.722-.368.968a4.812 4.812 0 0 1-.807.631l-.02.012c-.373.264-.687.505-.992.758l.027-.022c-.304.246-.566.616-.781 1.107l-.781.275.093-.184h-.275l.138.184-.414.139-.091-.139c-.522-.798-1.011-1.304-1.47-1.52a3.278 3.278 0 0 0-1.32-.412l-.013-.001c-.316-.05-.742-.1-1.172-.135l-.068-.005c-.398-.03-.781-.261-1.149-.69a9.382 9.382 0 0 0 1.517.138c.49 0 .949.032 1.378.093s.827.184 1.195.368c.397.184.781.522 1.147 1.013.065.085.141.19.214.296l.016.025a.825.825 0 0 0 .227.229l.003.002.045-.091c0-.216-.091-.477-.275-.784a4.316 4.316 0 0 0-1.451-1.461l-.019-.011c-.306-.186-.566-.277-.781-.277-.398 0-.795.03-1.194.091-.357.03-.773.047-1.194.048h-.414c-.154-.032-.307-.064-.459-.093a1.68 1.68 0 0 1-.424-.143l.009.004c-.091-.091-.122-.214-.091-.368.368.123.827.184 1.378.184a4.72 4.72 0 0 0 1.149-.138 5.13 5.13 0 0 1 1.193-.139h.001c.522 0 1.027.154 1.517.461s.888.675 1.195 1.104l.138.094c.029-.098.045-.211.045-.328l-.001-.042v.002c0-.246-.122-.477-.368-.691a3.525 3.525 0 0 0-.85-.545l-.022-.009a3.746 3.746 0 0 0-.938-.408l-.027-.006a2.486 2.486 0 0 0-.821-.184h-.006c-.49 0-.965.077-1.424.23-.43.117-.924.184-1.434.184h-.038.002c-.091 0-.32-.016-.688-.046s-.552-.122-.552-.275v-.093l.046-.046h.413c.307 0 .613.016.92.048.306 0 .627-.032.965-.093l.918-.186a5.637 5.637 0 0 1 1.01-.091h.461a.387.387 0 0 0 .182.046.44.44 0 0 1 .279.001l-.003-.001c.429.061.826.23 1.194.506.368.246.72.507 1.056.784.032.03.048.016.048-.048 0-.152-.109-.352-.323-.597a5.314 5.314 0 0 0-1.578-1.229l-.03-.014c-.275-.154-.49-.23-.643-.23-.704 0-1.392.138-2.067.414a5.63 5.63 0 0 1-2.021.368h-.736a1.625 1.625 0 0 1-.422-.142l.009.004a.31.31 0 0 1-.138-.258l.001-.019v.001-.093c.398-.03.781-.045 1.149-.045.356-.03.772-.047 1.192-.048h.094c.429-.122.888-.245 1.378-.368a6.645 6.645 0 0 1 1.517-.182c.55 0 1.01.184 1.378.552.398.336.827.614 1.286.829l.138-.046v-.093c0-.214-.107-.429-.32-.643a2.548 2.548 0 0 0-.724-.638l-.012-.006a3.209 3.209 0 0 0-.851-.41l-.023-.006a2.058 2.058 0 0 0-.73-.182h-.006c-.427 0-.856.061-1.285.184a12.13 12.13 0 0 0-1.42.394l.088-.026-1.286.368a6.195 6.195 0 0 1-1.32.139h-.333c-.123-.032-.184-.109-.184-.23 0-.093.138-.139.413-.139.2-.024.439-.04.68-.045h.008c.4-.032.798-.109 1.195-.23l1.195-.368c.398-.123.781-.23 1.149-.323a4.02 4.02 0 0 1 1.194-.184c.307 0 .613.032.918.091.309.06.576.208.782.416.061.03.168.138.32.32.154.155.261.232.323.232v-.139c-.338-.552-.704-.92-1.104-1.104-.397-.216-.888-.323-1.469-.323-.491 0-.95.077-1.379.23a30.01 30.01 0 0 0-1.331.416c-.429.152-.874.306-1.333.459a5.237 5.237 0 0 1-1.393.185l-.081-.001h.004-.32c-.093 0-.139-.077-.139-.23v-.045l.093-.048.098.001c.571 0 1.122-.084 1.641-.24l-.04.01c.49-.154.949-.323 1.378-.507.459-.184.92-.352 1.379-.506s.965-.23 1.515-.23c.336 0 .659.077.965.23s.566.23.781.23h.093a.68.68 0 0 0-.364-.505l-.004-.002a2.003 2.003 0 0 0-.629-.274l-.014-.003a2.165 2.165 0 0 0-.766-.138h-.015.001a4.998 4.998 0 0 0-.64-.046H17.071c-.49 0-.956.102-1.378.286l.022-.009c-.429.184-.858.384-1.286.598-.4.184-.827.368-1.286.552a3.518 3.518 0 0 1-1.38.277h-.047.002-.277l.046-.184a5.499 5.499 0 0 0 1.735-.43l-.036.014c.491-.213.95-.429 1.379-.643.459-.245.918-.461 1.378-.645s.965-.275 1.517-.275c.152 0 .306.016.459.045h.506v-.045c0-.062-.077-.123-.23-.186a2.324 2.324 0 0 0-.492-.136l-.014-.002a1.69 1.69 0 0 0-.55-.093 1.95 1.95 0 0 0-.317-.045h-.005c-.582 0-1.072.107-1.472.322-.44.239-.815.483-1.17.752l.023-.016a8.959 8.959 0 0 1-1.102.714l-.047.024c-.398.214-.888.322-1.47.322h-.182c-.032-.03-.077-.045-.139-.045.062-.093.2-.154.414-.184.214-.024.401-.057.584-.099l-.034.007c.491-.184.874-.384 1.149-.598.307-.245.597-.461.874-.645.275-.214.597-.4.965-.552.398-.154.934-.246 1.608-.277l.138-.093-.459-.091a2.471 2.471 0 0 0-.487-.046h-.02.001c-.643 0-1.179.107-1.608.323a9.39 9.39 0 0 0-1.131.709l.027-.019c-.304.246-.611.491-.917.736-.244.228-.561.38-.913.415l-.007.001-.229-.093c.061-.091.214-.2.459-.322.245-.123.413-.23.506-.323.291-.202.546-.414.782-.646l-.001.001a5.26 5.26 0 0 1 .643-.552c.245-.184.49-.322.736-.414a2.56 2.56 0 0 1 .968-.186c.177 0 .35.018.518.051l-.017-.003c.184 0 .352-.016.506-.046.061 0 .091-.016.091-.046 0-.122-.184-.198-.55-.23a8.576 8.576 0 0 0-.626-.044l-.018-.001c-.582 0-1.072.122-1.472.368a7.294 7.294 0 0 0-1.063.789l.007-.006-.781.784c-.214.245-.429.368-.643.368h-.045v-.093c.275-.338.52-.661.736-.966.213-.307.443-.584.688-.83a2.95 2.95 0 0 1 .872-.598c.336-.152.781-.229 1.333-.229.154 0 .306.03.459.091.184.032.368.046.552.046.03 0 .045-.016.045-.046 0-.061-.03-.107-.091-.138l-.091-.184c-.307-.186-.752-.277-1.333-.277-.888 0-1.517.184-1.883.552a4.37 4.37 0 0 0-.874 1.243c-.223.483-.452.89-.71 1.278l.022-.035c-.246.368-.69.554-1.333.554H9.6c-.306 0-.608-.017-.905-.051l.036.003a3.333 3.333 0 0 0-.784-.091h-.045.002c-.581 0-1.056.23-1.424.691a2.52 2.52 0 0 0-.504 1.52c0 .154.03.229.091.229a1.25 1.25 0 0 0 .319-.543l.002-.009c.061-.214.214-.429.459-.645.154-.122.368-.23.643-.322.306-.123.613-.216.918-.277.336-.061.659-.107.965-.138.336-.032.613-.046.827-.046h.093c0 .093-.123.184-.368.277-.187.056-.45.12-.716.173l-.065.011a49.14 49.14 0 0 1-.874.184 3.477 3.477 0 0 0-.55.091 1.337 1.337 0 0 0-.686.548l-.003.006c-.148.264-.273.57-.361.891l-.007.029a5.578 5.578 0 0 0-.183 1.038l-.001.021c-.03.338-.045.629-.045.875v.552l-.368-.275c0-.032-.016-.048-.046-.048v-.136l-.031.001a.647.647 0 0 1-.249-.05l.004.002-.688-.552.963.186.046-.093v-.323c-.184-.152-.445-.245-.781-.275a8.794 8.794 0 0 0-.773-.046H4.41l-.182-.184-.184-.184h.275c.306 0 .597.046.872.138.307.093.582.138.827.138.062 0 .093-.045.093-.138.024-.081.04-.175.045-.272v-.003a11.27 11.27 0 0 0-1.104-.348l-.089-.02a4.974 4.974 0 0 0-1.187-.139H3.72h.003-.23l-.368-.461h.368c.336 0 .674.032 1.011.093.336.061.672.138 1.01.23v-.277a3.49 3.49 0 0 0-1.194-.461 4.265 4.265 0 0 0-1.192-.184h-.003a.41.41 0 0 0-.185.047l.002-.001h-.184l-.277-.461.035.001c.087 0 .17-.017.246-.049l-.004.002-.046-.091h-.184c-.03-.032-.077-.046-.138-.046l-.184-.414h.23v-.138a3.44 3.44 0 0 0-.093-.829 3.239 3.239 0 0 1 .002-.8l-.002.016c.032-.398.062-.768.093-1.104a6.74 6.74 0 0 0 .091-1.104c0-.216-.016-.493-.046-.83-.03-.336-.091-.582-.182-.736l-.277-.277c.108.467.175 1.007.184 1.56v.006c0 .522-.061 1.027-.184 1.52a7.98 7.98 0 0 0-.138 1.5v.019-.001c0 .277.016.491.046.645a14.07 14.07 0 0 1-.359-.815l-.055-.153c-.156-.39-.294-.693-.445-.989l.032.069V20.17a9.65 9.65 0 0 0-.34-1.358l.02.07a4.029 4.029 0 0 0-.607-1.396l.009.014a8.402 8.402 0 0 0-.106-.476l.013.062v-.459c.214.245.4.522.552.829.154.306.306.582.459.829l.093.045v-.091c0-.246-.123-.63-.368-1.152a7.003 7.003 0 0 0-.84-1.445l.013.018v-.966c.091.061.184.138.275.23.099.07.177.163.229.271l.002.004.046-.045a2.217 2.217 0 0 0-.237-.518l.005.009a2.401 2.401 0 0 0-.324-.556l.004.005v-.186c.214-.43.368-.861.459-1.29.123-.461.23-.936.322-1.427.307-.338.629-.554.965-.645.25-.074.591-.154.937-.219l.074-.012c.368-.093.736-.2 1.102-.322.368-.154.75-.446 1.149-.875H5.1v.161a.874.874 0 0 1-.366.712l-.003.002a3.433 3.433 0 0 1-.801.409l-.024.007-1.149.414a3.723 3.723 0 0 0-1.114.559l.01-.007a3.582 3.582 0 0 0-.872.92c-.214.368-.32.845-.32 1.429v.091a.547.547 0 0 1 .182.184.54.54 0 0 0 .182.183l.002.001a.808.808 0 0 0 .091-.368c.022-.076.054-.216.083-.356l.01-.058c.152-.4.382-.72.688-.966.307-.277.629-.522.965-.736l1.104-.646c.401-.216.748-.46 1.061-.741l-.005.005c.03-.032.045.016.045.138 0 .491-.198.861-.597 1.106-.483.289-.888.563-1.277.856l.037-.027c-.429.307-.842.752-1.24 1.336-.368.552-.552 1.395-.552 2.531v.277c0 .123.032.184.093.184h.043l.277-.598c.122-.4.214-.72.275-.966.091-.246.184-.477.275-.691.13-.227.267-.423.42-.605l-.005.007c.182-.214.413-.491.688-.829.184-.246.368-.475.552-.691.184-.214.398-.429.643-.645l.184.139c-.032.307-.184.629-.459.966-.277.307-.568.659-.874 1.059s-.582.859-.827 1.381-.368 1.12-.368 1.797c0 .368.093.629.277.782l.138-.048a12.819 12.819 0 0 1-.046-1.011c.032-.277.093-.538.184-.784a4.17 4.17 0 0 1 .378-.753l-.01.017c.152-.245.336-.538.55-.875.062-.091.184-.306.368-.643.214-.338.352-.538.413-.6v.093c0 .154-.061.384-.182.691a36.233 36.233 0 0 1-.606 1.518l.191-.505a8.543 8.543 0 0 0-.395 1.038l-.018.066a3.78 3.78 0 0 0-.184 1.106v.277c.03.122.091.184.184.184.061 0 .107-.016.138-.046a.306.306 0 0 1 .136-.137l.002-.001v-.554c.032-.275.061-.536.091-.782.032-.275.077-.522.139-.736.061-.216.138-.352.229-.416v.738c0 .307.016.629.046.966.066.332.161.625.286.901l-.011-.026c.123.246.306.384.552.416v-.139c0-.184-.093-.552-.277-1.104a5.538 5.538 0 0 1-.275-1.702v-.645c0-.216.016-.43.046-.645l.091-.184h.048c.032.154.091.475.184.966.091.491.198 1.013.32 1.565.154.554.293 1.059.416 1.52.122.43.229.659.32.691.093 0 .138-.032.138-.093v-.23c0-.4-.061-.813-.184-1.243a11.788 11.788 0 0 0-.489-1.462l.029.081A16.506 16.506 0 0 1 5 14.079l-.039-.166a5.747 5.747 0 0 1-.184-1.425v-.325c0-.184.032-.277.091-.277.032 0 .048.048.048.139.243.798.474 1.611.688 2.44.245.798.443 1.611.597 2.44.032.123.077.352.138.691.093.307.2.461.322.461.123 0 .184-.077.184-.23a5.009 5.009 0 0 0-.332-1.785l.012.035a16.83 16.83 0 0 0-.645-1.704 58.99 58.99 0 0 1-.597-1.702 5.66 5.66 0 0 1-.275-1.75V10.6c.03-.184.075-.277.138-.277.061 0 .091.046.091.138a.34.34 0 0 1 .046.139c.154.491.291.982.413 1.472.123.493.245.998.368 1.52.154.522.322 1.043.506 1.566a9.94 9.94 0 0 1 .413 1.565c.032.123.046.323.046.598.032.246.077.4.138.461.093-.062.138-.2.138-.416v-.506c0-.736-.107-1.427-.32-2.072a24.123 24.123 0 0 0-.753-2.007l.064.167c-.246-.614-.475-1.198-.69-1.75a4.83 4.83 0 0 1-.322-1.701v-.002c0-.154.046-.245.138-.277l.091.093c.123.277.277.659.461 1.152.182.459.352.95.504 1.472.184.491.336.982.461 1.474l.368 1.197c0 .032.014.184.045.461.061.246.107.538.138.875.061.307.107.613.138.92.061.307.093.522.093.645h.091l.046-.138v-.875c0-.706-.046-1.488-.138-2.347-.062-.891-.261-1.658-.598-2.304-.159-.31-.296-.551-.442-.786l.029.05a25.01 25.01 0 0 0-.586-1.124l.08.157-.506-.922c-.122-.306-.184-.536-.184-.69v-.323c0-.154.016-.23.048-.23.029 0 .091.077.182.23s.184.338.275.554c.123.214.23.414.322.598l.184.368c.336.675.597 1.274.781 1.795.214.491.384.968.506 1.427.123.461.214.952.275 1.474.062.522.123 1.152.184 1.888v.414c0 .184.032.307.093.368.091-.03.152-.154.182-.368a5.04 5.04 0 0 0 .048-.736c.028-.235.044-.507.045-.783v-.553c0-.859-.168-1.688-.506-2.486a14.69 14.69 0 0 0-1.05-2.283l.038.073a15.157 15.157 0 0 0-1.087-1.749l.031.045c-.306-.461-.459-.784-.459-.966v-.557l.091-.138c.522 1.043.981 1.842 1.379 2.395.397.522.736 1.027 1.01 1.52.277.459.491 1.027.643 1.702.154.675.23 1.672.23 2.992v1.198h.046c.091 0 .168-.123.229-.368.061-.246.107-.523.138-.83a4.41 4.41 0 0 0 .093-.874c.03-.277.045-.446.045-.507 0-1.197-.198-2.224-.597-3.085a12.204 12.204 0 0 0-1.355-2.287l.022.031a22.299 22.299 0 0 0-1.311-1.688l.026.031c-.4-.491-.598-.936-.598-1.336v-.091c.093 0 .23.154.414.461.214.275.352.445.413.506.184.277.384.538.597.784.214.214.414.445.598.69.55.645 1.04 1.381 1.469 2.21.429.8.69 1.643.782 2.533v.784c0 .061-.016.229-.048.506v1.614c0 .213.016.32.048.32.091-.03.152-.184.182-.459.062-.277.107-.598.139-.968.03-.368.045-.704.045-1.013v-.69c0-1.29-.245-2.365-.736-3.224a9.187 9.187 0 0 0-1.562-2.165l.002.002a14.247 14.247 0 0 0-1.563-1.52c-.459-.4-.688-.768-.688-1.104v-.048l.045-.045c.062 0 .214.123.461.368.245.214.52.475.826.784.307.275.582.536.827.782.275.245.459.368.552.368a5.628 5.628 0 0 1-.083-.358l-.01-.058.001-.035c0-.154-.034-.3-.094-.431l.003.006a5.1 5.1 0 0 0-1.125-.909l-.023-.013a12.474 12.474 0 0 1-1.171-.846l.022.018c.032 0 .093.032.184.093.123.061.245.138.368.23.154.061.291.123.413.184.108.05.233.084.365.093h.049a2.135 2.135 0 0 1-.133-.218l-.006-.012v-.01a.315.315 0 0 0-.091-.221 4.77 4.77 0 0 1-1.116-.608l.013.009-.046-.093h.046c.184 0 .352.062.506.184.184.093.352.139.506.139h.091v-.598c-.061 0-.184.016-.368.045-.182 0-.352-.016-.504-.045l.504-.323c.19-.031.36-.096.512-.188l-.006.004.093-.184c.122-.062.229-.123.32-.184l.368-.184c-.336.275-.506.768-.506 1.472 0 .4.093.752.277 1.059.03-.613.152-1.074.368-1.381.213-.307.49-.538.826-.691.336-.184.72-.322 1.149-.414a8.038 8.038 0 0 0 1.333-.414h.045v.048c0 .275-.168.459-.504.552-.307.091-.643.198-1.011.32-.368.125-.72.309-1.056.554-.307.216-.461.614-.461 1.197 0 .186.016.461.048.829.059.338.122.707.182 1.106.091.368.184.72.275 1.059.123.307.261.522.414.645.03-.43-.016-.859-.138-1.29a4.46 4.46 0 0 1-.184-1.241v-.002c0-.461.045-.813.138-1.059.122-.245.275-.445.459-.598s.398-.291.643-.414c.245-.154.506-.368.781-.645a2.09 2.09 0 0 0 .365-.363l.003-.005c.152-.184.259-.291.32-.322v.091c0 .214-.122.461-.366.736-.317.363-.557.633-.799.902l.063-.071c-.27.302-.527.633-.759.981l-.02.032a2.427 2.427 0 0 0-.322 1.243c0 .552.107 1.166.32 1.84.246.677.552 1.352.92 2.027a15.16 15.16 0 0 0 1.194 1.795c.459.522.92.906 1.379 1.152v-.048c-.336-.429-.69-.888-1.056-1.379a16.21 16.21 0 0 1-.97-1.445l-.041-.075a10.764 10.764 0 0 1-.756-1.536l-.026-.075a5.116 5.116 0 0 1-.275-1.657V6.87c0-.216.077-.538.23-.968.152-.429.32-.874.506-1.334.214-.461.413-.859.597-1.197.214-.368.368-.598.459-.691v.138c0 .307-.061.645-.184 1.013-.282.814-.422 1.18-.564 1.544l.152-.439a50.05 50.05 0 0 0-.368 1.152 5.166 5.166 0 0 0-.138 1.15c0 .461.154 1.059.459 1.795.306.707.659 1.413 1.056 2.118a14.38 14.38 0 0 0 1.333 1.795c.459.491.858.736 1.195.736.061 0 .091-.029.091-.091a18.796 18.796 0 0 0-1.169-1.495l.02.023a43.508 43.508 0 0 1-1.08-1.293l-.069-.089a7.494 7.494 0 0 1-.807-1.513l-.018-.052a5.095 5.095 0 0 1-.322-1.8l.001-.092v.005c0-.614.075-1.229.229-1.842.154-.614.261-1.198.322-1.75.032-.061.061-.2.093-.414.03-.245.091-.368.182-.368h.093l.046.093v.368c0 .675-.093 1.35-.277 2.026a8.35 8.35 0 0 0-.229 1.963v.017-.001c0 .614.107 1.243.32 1.888.246.614.568 1.197.966 1.75.061.091.198.275.413.552.245.246.49.522.736.829.245.277.49.538.734.784.245.214.413.32.506.32.091 0 .138-.014.138-.045v-.093a283.39 283.39 0 0 1-1.286-1.472 12.362 12.362 0 0 1-.933-1.327l-.031-.055a7.067 7.067 0 0 1-.63-1.468l-.013-.052a7.098 7.098 0 0 1-.23-1.939v.006c0-.43.032-.845.093-1.243.061-.43.091-.859.091-1.29 0-.061-.016-.261-.045-.598 0-.338.03-.507.091-.507.122 0 .198.154.229.461.062.277.093.598.093.968.032.336.046.675.046 1.013v.552c0 .859.03 1.597.091 2.21.061.584.306 1.243.736 1.981.091.154.245.384.459.69.245.307.49.63.734.968.275.307.536.582.781.829.275.245.49.368.643.368h.091v-.046a53.654 53.654 0 0 0-1.606-2.072 5.677 5.677 0 0 1-1.098-2.357l-.006-.037a6.064 6.064 0 0 1-.229-1.657 10.45 10.45 0 0 0-.046-1.704 1.52 1.52 0 0 0-.142-.608l.004.009a2.008 2.008 0 0 1-.091-.549v-.003l.045-.048c.123-.029.23.032.322.186.093.159.158.346.183.545l.001.007c.061.216.093.43.093.645.03.184.045.323.045.416.062.582.123 1.12.184 1.61.061.491.154.968.275 1.427.123.461.291.922.506 1.382.245.429.552.874.92 1.334l.275.416.459.552c.154.184.306.352.459.506.154.123.275.184.368.184h.045a54.384 54.384 0 0 1-.918-1.472 50.645 50.645 0 0 0-.899-1.457l.211.352c-.214-.368-.338-.614-.368-.736a6.19 6.19 0 0 1-.401-.923l-.013-.045c-.13-.348-.272-.809-.391-1.279l-.022-.102c-.055-.17-.166-.635-.27-1.103l-.052-.279a5.623 5.623 0 0 1-.137-1.048v-.011c0-.061.03-.107.091-.138.184.032.322.184.414.461.122.277.214.598.275.966.061.338.107.675.138 1.013.032.338.046.584.046.736.091.4.229.845.413 1.336.184.461.4.936.643 1.427.275.461.566.891.874 1.29.306.4.613.736.918 1.013h.184a19.566 19.566 0 0 1-1.049-1.73l-.055-.11a26.022 26.022 0 0 1-.734-1.706c.044.215-.175-.38-.388-.977l-.255-.818a29.891 29.891 0 0 0-.762-2.245l.074.219.091-.046c.368.307.643.768.827 1.381.214.614.413 1.275.597 1.981.214.706.475 1.427.781 2.163a4.683 4.683 0 0 0 1.37 1.79l.009.007h.138a.805.805 0 0 0-.23-.367l-.001-.001a2.397 2.397 0 0 1-.269-.403l-.006-.013a18.226 18.226 0 0 1-1.199-2.675l-.041-.133a68.585 68.585 0 0 0-1.314-3.59l.21.598h.048c0-.032.014-.048.045-.048.154 0 .322.17.506.507s.368.752.55 1.243c.214.491.414 1.029.598 1.611l.597 1.613c.214.491.398.906.552 1.243.182.307.352.445.504.414l.046-.184c-.032-.186-.168-.554-.413-1.106s-.522-1.136-.827-1.75a36.816 36.816 0 0 0-.9-1.918l.119.261c-.214-.491-.322-.768-.322-.829l.045-.091c.277.154.552.522.827 1.104.275.554.552 1.152.827 1.797.275.614.52 1.181.736 1.704.213.491.382.736.504.736.062 0 .093-.061.093-.184s-.093-.368-.277-.736l-.597-1.198a35.073 35.073 0 0 0-.764-1.486l.121.242c-.184-.4-.291-.69-.32-.874.213.061.427.245.642.552.245.277.475.614.688 1.013.216.368.4.736.552 1.104.154.368.261.661.322.875l.138-.045.184-.416c.032-.122 0-.291-.091-.506a3.502 3.502 0 0 0-.375-.655l.007.01a6.578 6.578 0 0 0-.829-1.061l.002.002V9.82c.491.306.827.566 1.011.782.184.214.459.475.827.782.032 0 .091.016.184.046.122 0 .184-.032.184-.093 0-.123-.107-.277-.322-.461a4.725 4.725 0 0 0-.719-.587l-.017-.011a6.34 6.34 0 0 0-.795-.535l-.032-.017a14.431 14.431 0 0 1-.636-.444l.04.028a4.247 4.247 0 0 1-.613-.33l.016.01c-.307-.186-.445-.307-.414-.368.429.182.843.336 1.242.459s.765.277 1.102.461c.368.154.704.368 1.01.645.307.245.598.582.874 1.013h.184v-.093c0-.522-.291-.966-.874-1.334a8.131 8.131 0 0 0-1.825-.904l-.058-.018a20.062 20.062 0 0 0-1.71-.64l-.173-.049c-.552-.186-.827-.354-.827-.507 0-.061.061-.093.184-.093.245 0 .475.048.688.139.216.061.445.122.69.184.552.154.981.277 1.286.368.307.061.582.154.827.277.245.091.49.23.736.414.275.154.643.414 1.102.782l.091-.046a4.586 4.586 0 0 0-.555-.739l.003.003a4.24 4.24 0 0 0-.725-.729l-.009-.007a3.995 3.995 0 0 0-.851-.589l-.022-.011a1.915 1.915 0 0 0-.869-.23h-.739c-.368 0-.765-.016-1.194-.045-.42-.032-.798-.081-1.169-.149l.066.01c-.336-.091-.506-.23-.506-.414 0-.03.016-.046.046-.046.154 0 .306.016.459.048.154.029.306.045.459.045.336 0 .704-.032 1.104-.093a4.966 4.966 0 0 1 1.101-.138c.429 0 .827.093 1.195.277.398.184.736.4 1.01.645.277.214.506.414.69.598s.307.275.368.275c.03 0 .046-.016.046-.045 0-.246-.139-.507-.414-.784a4.054 4.054 0 0 0-.903-.819l-.015-.009a5.801 5.801 0 0 0-1.109-.585l-.04-.014c-.368-.184-.658-.275-.872-.275-.522 0-1.027.091-1.517.275-.451.146-.969.23-1.507.23h-.009c-.154 0-.322-.016-.506-.046a1.09 1.09 0 0 1-.461-.23l.002.001-.093-.139a4.99 4.99 0 0 1 1.149-.046c.368.032.781-.016 1.24-.138.307-.123.597-.245.874-.368.275-.123.566-.184.872-.184.368 0 .72.077 1.056.23.368.122.69.275.966.459.275.186.506.354.688.507.184.123.291.184.322.184.032 0 .046-.032.046-.091a1.455 1.455 0 0 0-.095-.378l.004.01a2.235 2.235 0 0 0-.631-.501l-.012-.006a3.513 3.513 0 0 0-.803-.452l-.024-.009a5.43 5.43 0 0 0-.878-.357l-.041-.011a2.736 2.736 0 0 0-.776-.139h-.005c-.338 0-.675.062-1.011.186-.388.116-.693.226-.991.348l.073-.026c-.307.093-.629.2-.965.322a3.112 3.112 0 0 1-.919.139H15.9c-.152 0-.32-.032-.504-.093s-.277-.168-.277-.322c.277-.032.566-.062.874-.093.306-.03.581-.077.827-.138a8.112 8.112 0 0 0 1.516-.573l-.047.021a3.518 3.518 0 0 1 1.517-.323c.55 0 1.072.107 1.562.323.52.214 1.011.475 1.47.782h.138c-.032-.184-.184-.384-.459-.598a5.674 5.674 0 0 0-.931-.583l-.033-.015a7.855 7.855 0 0 0-1.045-.443l-.059-.018c-.336-.123-.595-.184-.779-.184a2.33 2.33 0 0 0-.965.23c-.336.122-.704.275-1.104.459a14.9 14.9 0 0 1-1.238.507 4.241 4.241 0 0 1-1.251.184h-.037.002c-.214 0-.368-.016-.461-.046a1.302 1.302 0 0 1-.274-.229l-.001-.001.046-.045a3.78 3.78 0 0 1 1.011-.139c.368-.03.734-.107 1.102-.23.55-.214 1.088-.459 1.608-.736a3.893 3.893 0 0 1 1.76-.415h.034-.002c.336 0 .779.138 1.331.414.582.277 1.04.522 1.378.736h.046l.046-.138c0-.214-.123-.43-.368-.645a2.783 2.783 0 0 0-.809-.545l-.018-.007a4.977 4.977 0 0 0-.928-.359l-.037-.009c-.336-.123-.597-.184-.781-.184-.49 0-.965.107-1.424.322-.524.23-.96.461-1.379.719l.048-.027c-.461.245-.92.475-1.379.69-.4.175-.866.277-1.355.277h-.023.001a.762.762 0 0 1-.236-.048l.005.002c-.091-.03-.138-.077-.138-.138v-.139c.061-.122.184-.184.368-.184.184-.03.336-.061.459-.091a4.17 4.17 0 0 0 1.331-.416c.461-.213.89-.429 1.286-.643.429-.246.843-.461 1.242-.645a3.343 3.343 0 0 1 1.331-.277c.522 0 .981.154 1.379.461.429.277.672.416.736.416l-.048-.186c-.397-.43-.781-.72-1.147-.875-.338-.184-.797-.275-1.379-.275-.55 0-1.072.122-1.562.368-.459.245-.918.506-1.378.784-.378.247-.829.507-1.295.742l-.084.039a3.158 3.158 0 0 1-1.515.368h-.138c0-.03-.032-.061-.093-.091-.061-.061-.091-.123-.091-.184v-.093c.061-.03.291-.061.688-.091.429-.062.752-.154.965-.277.4-.184.766-.4 1.104-.645.368-.245.72-.475 1.056-.69.368-.216.736-.4 1.102-.554.398-.154.827-.23 1.286-.23.184 0 .368.032.55.093.214.032.4.061.552.091l.413.093a.737.737 0 0 0 .32.093h.002c.093.214.23.398.414.552.184.123.352.261.506.414l-.184-.461a1.64 1.64 0 0 0-.142-.424l.004.01c.152 0 .382.032.688.093l.322.782a.624.624 0 0 1 .046.277.448.448 0 0 0 .183.274l.001.001.138-.322v-.093c0-.245-.046-.506-.138-.782l.597.23c.061.061.077.091.046.091h.091v-.045l.552.275h.045l1.056.554h-.136c-.429 0-.797.016-1.104.045-.304 0-.611.17-.918.507l-.413.093v.414h.091c.582-.307 1.134-.461 1.654-.461h1.746l.368.275a2.93 2.93 0 0 1-1.051.23h-.557a4.016 4.016 0 0 0-.892.002l.018-.002a3.42 3.42 0 0 0-.826.093c-.214.03-.338.091-.368.184a1.457 1.457 0 0 0-.092.361l-.001.007c.032.062-.03.17-.182.323v.045c.152.032.382-.016.688-.138.307-.154.566-.245.781-.277.552-.091.934-.138 1.149-.138.214-.032.384-.046.506-.046.123 0 .245-.016.368-.046.152-.061.397-.184.736-.368.059.032.152.107.274.23-.291.177-.627.32-.984.411l-.026.005a9.391 9.391 0 0 1-.993.22l-.063.009c-.368.032-.736.077-1.104.138a4.309 4.309 0 0 0-1.036.334l.026-.011c.051.136.084.294.091.458v.003a.781.781 0 0 1-.091.322 5.966 5.966 0 0 1 1.056-.368c.398-.123.781-.23 1.149-.323.398-.122.781-.261 1.149-.414a3.968 3.968 0 0 0 1.056-.598l.32.277c-.213.214-.534.414-.963.598s-.888.352-1.378.507c-.719.218-1.177.374-1.631.539l.252-.08c-.429.154-.736.293-.918.416v.643a4.543 4.543 0 0 1 1.761-.823l.031-.006a6.14 6.14 0 0 0 1.837-.736c.212-.099.394-.222.553-.369l-.001.001c.245-.186.443-.277.597-.277.093 0 .138.032.138.091 0 .216-.229.446-.688.691-.461.246-.981.491-1.563.736-.581.246-1.149.493-1.699.738-.552.214-.904.414-1.056.598v.046c.135.15.232.337.274.544l.001.008c.459-.4 1.01-.706 1.654-.92a9.23 9.23 0 0 0 1.78-.897l-.036.022c.246-.154.461-.323.643-.507.177-.207.39-.377.632-.5l.012-.005.048.138c0 .43-.23.784-.69 1.059-.461.277-.981.552-1.563.829-.644.288-1.171.565-1.681.869l.073-.04c-.49.277-.795.645-.918 1.104.061.063.109.14.136.226l.001.004c.056.077.09.173.093.276v.001c0 .307-.154.491-.459.552l.229.368v-.045c.154-.43.352-.829.597-1.197.245-.4.536-.722.874-.968.582-.398 1.102-.69 1.562-.874.459-.216.981-.598 1.562-1.152l.184-.091c.061 0 .093.061.093.184a.395.395 0 0 1-.048.184l-.09.184c-.267.299-.57.558-.903.773l-.017.011c-.306.182-.643.368-1.01.552a17.47 17.47 0 0 0-1.011.598c-.313.224-.573.5-.774.817l-.007.012a2.832 2.832 0 0 0-.365.948l-.003.018c-.03.307-.122.598-.275.875v.829a1.6 1.6 0 0 0 .32.322h.048c.122-1.197.304-2.01.55-2.44.275-.461.582-.784.918-.966.368-.184.752-.354 1.149-.507.398-.184.827-.598 1.286-1.243a.512.512 0 0 0 .091-.134l.001-.003c.03-.093.061-.139.091-.139s.046.048.046.139c0 .522-.184.89-.552 1.104-.17.118-.559.361-.952.6l-.241.136a4.714 4.714 0 0 0-1.186 1.139l-.009.013c-.336.491-.506 1.259-.506 2.304v.459c0 .154.016.307.046.461l.184.368h.091a53.37 53.37 0 0 0 .138-1.981c.062-.613.414-1.181 1.056-1.702.196-.195.407-.376.629-.542l.016-.011c.26-.169.475-.384.638-.635l.005-.008c.093-.099.183-.204.268-.313l.007-.01c.076-.109.167-.2.272-.274l.003-.002v.048c0 .429-.122.797-.368 1.104a20.39 20.39 0 0 1-.84.982l.014-.016c-.315.321-.59.683-.814 1.078l-.013.026c-.245.432-.368.968-.368 1.613v.784c0 .306.032.536.093.688l.091.048c.061-.338.107-.691.138-1.059.032-.4.123-.768.275-1.104.154-.493.368-.984.643-1.475.307-.491.613-.95.92-1.381.091-.093.152-.138.182-.138.032 0 .048.061.048.184 0 .307-.093.629-.277.966-.154.338-.336.706-.552 1.104-.182.368-.368.768-.55 1.198-.146.403-.23.868-.23 1.353v.03-.002c0 .184.032.416.093.691a.704.704 0 0 0 .408.504l.005.002v-.045c0-.184-.016-.354-.046-.507v-.552c0-.154.032-.4.093-.736l.275-1.106c.123-.4.245-.752.368-1.059.154-.307.291-.507.413-.598v.091c0 .522-.107 1.045-.32 1.566a4.134 4.134 0 0 0-.323 1.611c0 .091.016.261.046.506.032.216.091.354.184.416l.275-.277c.032-.338 0-.722-.091-1.152-.093-.459-.032-.859.182-1.197h.048c0 .4.061.89.182 1.474.123.582.429.952.918 1.104v-.138a8.53 8.53 0 0 1-.763-1.687l-.018-.062a7.262 7.262 0 0 1-.229-1.829v-.063.003-.046c0-.061.016-.091.045-.091.154.643.384 1.304.69 1.979s.566 1.336.781 1.979l.322-.045v-.141c0-.214-.091-.536-.275-.966a18.138 18.138 0 0 0-.693-1.534l.05.107a16.84 16.84 0 0 1-.48-1.104l-.117-.323c-.184-.491-.277-.906-.277-1.243v-.277c.184.368.368.784.552 1.243.184.43.352.875.506 1.336.184.459.352.906.506 1.334.182.43.368.798.55 1.104.032.093.107.139.23.139.061 0 .091-.03.091-.091a5.097 5.097 0 0 0-.472-1.643l.013.03a14.184 14.184 0 0 0-.863-1.58l.035.06a24.446 24.446 0 0 1-.683-1.339l-.097-.226a4.152 4.152 0 0 1-.322-1.611c0-.123.016-.184.046-.184l.046.046c.093.119.171.256.225.404l.003.01c.091.214.198.461.322.736.123.277.23.554.322.829.091.246.168.43.23.554.245.613.504 1.197.781 1.749.275.552.506 1.168.688 1.842l.046.046a.313.313 0 0 0 .093-.222v-.009c0-.736-.154-1.427-.461-2.072a12.77 12.77 0 0 0-.951-1.898l.032.057a53.646 53.646 0 0 0-.965-1.611c-.275-.491-.413-.952-.413-1.381v-.093l.138.046c.306.675.597 1.258.872 1.749.307.491.582.982.827 1.474s.459 1.013.643 1.566c.214.552.398 1.227.552 2.026l.138-.184a1.5 1.5 0 0 0-.093-.554 3.486 3.486 0 0 1-.045-.57v-.03.002a23.193 23.193 0 0 0-.451-2.096l.037.163a4.504 4.504 0 0 0-.835-1.807l.008.011a4.163 4.163 0 0 0-.503-.598l-.001-.001c-.21-.278-.406-.518-.61-.75l.012.014a10.143 10.143 0 0 1-.478-.693l-.026-.043a1.534 1.534 0 0 1-.184-.689v-.095l.138-.046c.613.8 1.194 1.627 1.744 2.486a6.853 6.853 0 0 1 1.15 2.717l.091.552.275 1.243c0 .062.016.154.048.277.059.123.106.17.136.138l.093-.138v-.277c0-1.32-.2-2.41-.597-3.269a9.307 9.307 0 0 0-1.303-2.277l.015.021a14.362 14.362 0 0 0-1.288-1.523l.003.003c-.368-.398-.552-.782-.552-1.15v-.138h.093c.336.614.72 1.136 1.147 1.565.459.4.904.845 1.333 1.336.306.4.582.843.827 1.334.245.614.382 1.243.413 1.888.061.614.138 1.229.23 1.842.122.032.182-.077.182-.322.032-.246.048-.4.048-.461 0-.582-.048-1.104-.139-1.565l.368.598c0 .03.016.091.046.184.061.091.091.154.091.184-.056.262-.09.564-.091.874v.001c.03.245.061.506.091.782l-.091.091.045.048h.046v.32c.03.091.047.196.047.305v.019-.001a5.477 5.477 0 0 0-.47-.087l-.036-.004-.23.229c-.152.154-.229.246-.229.277l1.056.093.093.459a3.511 3.511 0 0 0-1.004-.184h-.329a.55.55 0 0 0-.326.001l.004-.001a.59.59 0 0 1-.272.322l-.003.002a1.18 1.18 0 0 0-.274.272l-.002.003h.184c.336 0 .674.016 1.011.048.368 0 .736.014 1.102.045v.23a.392.392 0 0 1 .046.184h-.23c-.429 0-.858-.032-1.286-.093a7.904 7.904 0 0 0-1.215-.091h-.255l-.32.23.182.275c.093.032.2.048.322.048h.368c.429 0 .842-.016 1.24-.048l1.24-.091v.184a.395.395 0 0 1 .048.184 8.515 8.515 0 0 1-.981.136l-.032.002h-1.469a4.654 4.654 0 0 0-.659-.045h-.032.002l-.046.091.184.323h.597a8.36 8.36 0 0 0 1.838-.23l.138.046a1.271 1.271 0 0 1-.635.319l-.008.001c-.275.064-.552.125-.827.186-.275.032-.52.061-.736.093-.182.03-.275.091-.275.184l.048.138h.091c.182 0 .352-.016.506-.046.182-.061.352-.091.504-.091h.093a.885.885 0 0 1-.593.321h-.004a.909.909 0 0 0-.599.231l.001-.001c-.03.061-.016.138.046.23l.184-.046-.552.784v.138c.336-.184.643-.461.92-.829.275-.4.566-.675.872-.829-.336.459-.674.936-1.011 1.427a4.048 4.048 0 0 1-1.224 1.234l-.016.01v.368c.275-.123.597-.368.965-.736.368-.4.704-.814 1.011-1.243.336-.43.627-.814.872-1.152.245-.336.4-.506.459-.506l.048.045v.048c-.093.182-.232.443-.416.781-.182.307-.382.63-.597.968-.207.379-.405.695-.618.999l.022-.032a5.263 5.263 0 0 1-.506.645 3.54 3.54 0 0 1-.626.452l-.018.009c-.306.154-.49.261-.55.322v.184h.091c.184 0 .368-.046.552-.138.184-.123.352-.23.506-.323.52-.275.888-.582 1.102-.92.245-.368.429-.722.55-1.059.123-.368.23-.72.322-1.059.093-.368.261-.706.506-1.013v.277a.494.494 0 0 1 .046.23c0 .522-.077 1.027-.23 1.52-.152.459-.336.92-.55 1.381l-.046.045-.736.691c.062.061.123.093.184.093h.184c-.03.03-.045.061-.045.091l-.139.322h-.229c-.061 0-.2.016-.413.048-.184 0-.277.029-.277.091l.093.046c.152.061.382.122.688.184l-.091.322a2.471 2.471 0 0 0-.487-.046h-.02.001a2.467 2.467 0 0 0-.479-.045h-.028.001c-.48.014-.937.08-1.376.193l.043-.009c-.245.03-.474.091-.688.184a1.51 1.51 0 0 0-.461.277l.002-.001.091.186.093.045a7.15 7.15 0 0 1 1.925-.275h.003c.491 0 .904.061 1.242.184l-.184.506c0 .032-.016.048-.046.048a3.61 3.61 0 0 0-1.286-.232h-.049.003-.688c-.214 0-.445.032-.688.093v.046c.036.078.067.17.089.266l.002.01c.061.093.107.139.138.139.52 0 .949.03 1.286.091.336.032.627.093.872.184l-.275.461a2.739 2.739 0 0 0-1.237-.322h-.417c-.03.03-.045.122-.045.275.03.123.061.214.091.277.214.061.413.123.597.184.214.032.429.077.643.138l-.368.416c-.397-.155-.704-.23-.918-.23h-.138a.808.808 0 0 1 .093.367v.001a.56.56 0 0 0 .138.275c.03.032.168.077.413.139l-.688.782a10.291 10.291 0 0 0-1.401-2.888l.022.033c-.552-.829-1.256-1.243-2.112-1.243H24.4c-.552 0-.949-.093-1.194-.277v-.043h.091c.52 0 .979-.061 1.378-.184.429-.154.858-.23 1.286-.23.277 0 .552.123.827.368.275.216.52.477.736.784.245.275.474.568.688.874.214.307.398.538.552.691.03 0 .045-.032.045-.091 0-.186-.122-.477-.368-.875a8.884 8.884 0 0 0-1.739-2.251l-.005-.005c-.336-.307-.613-.461-.827-.461h-.025c-.23 0-.444.069-.623.187l.004-.003c-.184.093-.368.2-.552.322a9.02 9.02 0 0 1-.597.368c-.179.088-.39.14-.613.14h-.032.002-.138c-.032-.032-.061-.046-.091-.046.152-.123.336-.275.55-.461.245-.184.49-.352.736-.506.245-.154.49-.291.734-.414.215-.107.466-.174.733-.184h.003c.304 0 .581.091.826.275.245.155.445.323.597.507h.048v-.091c-.246-.523-.522-.906-.829-1.152-.275-.245-.704-.368-1.286-.368zm-2.021-7.046a4.51 4.51 0 0 0-.793.47l.012-.009-.918.645c-.244.175-.544.372-.851.559l-.069.039c-.275.154-.504.23-.688.23-.123 0-.184-.048-.184-.139 0-.03.091-.107.275-.23.214-.122.352-.214.414-.275l-.184-.046-.138.138-.598.184v-.091a.31.31 0 0 1-.22.091h-.009a1.64 1.64 0 0 0-.414.048c-.098.029-.21.046-.326.046l-.044-.001h.002-.182c-.097.284-.273.52-.502.688l-.004.003c-.245.154-.506.322-.781.506a3.16 3.16 0 0 0-.731.684l-.005.007c-.213.245-.32.613-.32 1.104 0 .123.016.323.045.6l.184.736c.093.246.184.475.275.691.123.184.261.275.414.275h.045v-.091c0-.246-.061-.522-.182-.829a2.42 2.42 0 0 1-.184-.921v-.001c0-.275.03-.552.091-.829.049-.288.18-.54.369-.737v.001c.03-.032.107-.123.229-.277a7.73 7.73 0 0 1 .461-.506 6.98 6.98 0 0 0 .46-.417l.228-.228.046.091v.016c0 .27-.086.52-.233.723l.003-.004c-.152.216-.32.446-.504.691a7.337 7.337 0 0 0-.441.697l-.02.039a2.036 2.036 0 0 0-.229 1.018v-.003c0 .307.03.659.091 1.059.062.4.23.69.506.874v-.138c0-.214-.03-.414-.091-.598a1.838 1.838 0 0 1-.093-.584v-.015.001c0-.491.046-.859.138-1.104.093-.277.2-.507.322-.691l.368-.554c.154-.214.275-.506.368-.874a.94.94 0 0 0 .044-.371v.003c0-.186.032-.277.093-.277s.107.061.138.184c.032.123.046.2.046.23 0 .275-.062.536-.184.782-.123.214-.261.461-.413.736-.097.207-.222.512-.336.821l-.032.1c-.123.338-.184.736-.184 1.197 0 .123.016.352.046.691.061.336.122.506.182.506.093 0 .139-.03.139-.091 0-.461.045-.891.138-1.29.122-.43.245-.845.368-1.243.152-.429.275-.843.368-1.243.122-.43.198-.875.229-1.334v-.048c.082.176.132.382.138.598v.002c.03.184.046.4.046.645 0 .336-.062.659-.184.966-.093.277-.2.568-.322.875a14.44 14.44 0 0 1-.36.981l.038-.106a2.859 2.859 0 0 0-.138.884v.037-.002.138l.55-.184c.061-.613.2-1.197.414-1.749s.32-1.152.32-1.797c0-.214-.014-.398-.045-.552a3.489 3.489 0 0 1-.046-.58v-.019.001c.032-.032.061-.046.093-.046.03 0 .061.062.091.184.032.123.046.261.046.416.03.152.045.306.045.459v.23c0 .522-.091 1.043-.275 1.565a4.354 4.354 0 0 0-.275 1.537v.031-.002.322l.55.048c.032-.186.077-.4.139-.646.061-.275.107-.552.138-.829.061-.307.107-.598.138-.874a6.96 6.96 0 0 0 .046-.736c0-.246-.048-.477-.139-.693a2.26 2.26 0 0 1-.091-.643c0-.093.016-.154.046-.186l.229.277c.062.277.107.552.138.829.062.277.093.584.093.922 0 .429-.046.859-.138 1.288a6.043 6.043 0 0 0-.138 1.289v.184c.03.123.182.214.459.277l.091-1.243c.061-.461.091-.906.091-1.336 0-.336-.03-.659-.091-.966a5.049 5.049 0 0 1-.091-.969v-.046.002l.045-.093h.093c.091 0 .168.109.229.323.062.184.107.414.139.69.03.246.045.493.045.736v.507c0 .461-.016.922-.045 1.382v1.334c.061.184.213.338.459.461v-1.658a8.715 8.715 0 0 0-.048-1.565c0-.307-.059-.63-.182-.968a3.613 3.613 0 0 1-.138-.965v-.093c.214 0 .368.138.459.413.123.246.198.538.23.875.061.307.091.63.091.968.032.336.046.566.046.69s-.016.323-.046.598v.784c0 .275.016.536.046.782.03.214.091.352.184.414h.138a.821.821 0 0 0 .416-.141l-.003.002a5.115 5.115 0 0 1-.174-.511l-.01-.041a2.269 2.269 0 0 1-.091-.645v-1.29c0-.459-.061-.906-.184-1.334a4.097 4.097 0 0 0-.147-.537l.009.03a1.938 1.938 0 0 1-.093-.501v-.051l.048-.046c.182.032.32.246.413.645.122.4.214.859.275 1.382.061.49.107.981.138 1.472.032.491.077.829.138 1.013l.322-.414a8.973 8.973 0 0 0-.05-1.562l.004.042a6.684 6.684 0 0 0-.334-1.612l.014.047a1.112 1.112 0 0 1-.137-.314l-.002-.008-.091-.277v-.045a.715.715 0 0 1 .549.501l.001.005c.123.277.2.584.23.922.061.336.107.675.138 1.013.032.307.091.552.184.736l.459-.277a1.765 1.765 0 0 0-.324-1.202l.004.005c-.216-.368-.338-.72-.368-1.059h.229c.275.277.49.598.643.968.154.336.306.72.459 1.152h.414a8.127 8.127 0 0 1-.391-.687l-.023-.05a5.162 5.162 0 0 0-.423-.707l.011.015.184-.093c.182.123.397.384.643.784.275.368.49.659.642.874.704.368 1.242.968 1.608 1.797l.461.23c.182.091.352.138.504.138a.774.774 0 0 0 .23-.046c.122-.03.184-.077.184-.138l-.046-.046a22.035 22.035 0 0 1-1.011-.414 4.378 4.378 0 0 1-1.186-1.05l-.007-.01a5.798 5.798 0 0 1-.445-.62l-.014-.025a12.623 12.623 0 0 0-.662-.897l.018.024c.184.061.398.214.643.459l.781.784c.306.275.613.536.918.782.307.214.582.322.827.322h.091V20.3c0-.062-.091-.154-.275-.277a3.318 3.318 0 0 0-.577-.359l-.02-.009a7.362 7.362 0 0 0-.608-.397l-.036-.019a12.352 12.352 0 0 0-.389-.274l-.07-.046v-.048h.045c.307.123.598.23.874.323.306.061.627.093.965.093.122 0 .214-.032.275-.093l.275-.184v-.093h-1.331c-.061 0-.2-.03-.414-.091a9.736 9.736 0 0 0-.578-.24l-.11-.037-.643-.322c-.184-.123-.277-.2-.277-.23.123-.032.338-.016.643.046.307.03.643.075 1.011.138.368.032.72.077 1.056.138.338.032.582.046.736.046h.184v-.138c0-.093-.016-.139-.046-.139-.061-.091-.322-.138-.781-.138a92.758 92.758 0 0 0-1.47-.093 13.825 13.825 0 0 1-1.691-.196l.083.012c-.49-.091-.811-.23-.965-.414h.184c.704 0 1.44.062 2.205.184.766.123 1.517.186 2.251.186h.184c.032-.032.046-.062.046-.093 0-.093-.107-.17-.322-.23a4.218 4.218 0 0 0-.716-.136l-.02-.002a7.292 7.292 0 0 0-.827-.046 4.577 4.577 0 0 0-.494-.046h-.01c-.246 0-.536.016-.874.046h-1.056a4.872 4.872 0 0 1-.999-.193l.034.009c-.269-.088-.5-.23-.688-.416h.045l.091-.045h.138c.552 0 1.118.046 1.701.139a18.52 18.52 0 0 0 1.837.091c.307 0 .629.032.965.093s.659.091.965.091h.093l-.093-.046a2.973 2.973 0 0 0-1.175-.503l-.019-.003a4.702 4.702 0 0 0-1.319-.184h-.015.001c-.429 0-.858.016-1.286.045a17.29 17.29 0 0 1-1.286.048h-.827c-.152 0-.306-.016-.459-.048-.122-.03-.184-.091-.184-.184 0-.03.016-.045.046-.045.552 0 1.088-.032 1.608-.093a8.848 8.848 0 0 1 1.562-.138l-.184-.507c-.245.062-.398.077-.459.046-.061-.061-.168-.093-.32-.093a3.118 3.118 0 0 0-1.261.285l.02-.008c-.349.171-.76.273-1.194.277h-.414a.412.412 0 0 1-.274-.228l-.001-.003.091-.138c.459-.093.95-.154 1.47-.186a7.298 7.298 0 0 0 1.522-.337l-.052.015c0-.246-.046-.414-.138-.507-.214-.03-.459 0-.736.093-.404.134-.693.243-.978.36l.106-.039-.92.277a2.881 2.881 0 0 1-.823.138h-.371l-.138-.229a14.1 14.1 0 0 1 .643-.139c.306-.091.613-.2.918-.322.336-.123.643-.23.918-.323.307-.122.522-.214.643-.275-.061-.093-.122-.293-.184-.598-.373.09-.695.201-1.002.336l.038-.015-1.01.461c-.336.154-.674.291-1.011.414a2.708 2.708 0 0 1-.776.137h-.096c-.032 0-.048-.016-.048-.046l.048-.091c.122-.062.32-.17.597-.323a9.56 9.56 0 0 1 .965-.506c.368-.184.688-.338.965-.461a3.7 3.7 0 0 1 .616-.269l.027-.008-.368-.552zM4.088 17.91c-.061-.03-.182 0-.368.093a1.09 1.09 0 0 1-.411.091h-.231l-.138.093c.214.091.368.277.459.552.122.246.198.522.229.829.062.307.093.614.093.922.03.307.045.552.045.736 0 .368-.016.752-.045 1.152 0 .398.03.768.091 1.104.154.216.245.384.275.507.062.122.107.23.139.322.077.108.168.2.272.274l.003.002c.122.061.352.138.688.23a3.307 3.307 0 0 0-.6-1.017l.003.004c-.214-.307-.336-.706-.368-1.197v-1.198c0-.4-.03-.797-.091-1.197a15.227 15.227 0 0 0-.266-.862l.038.126a3.09 3.09 0 0 1-.093-.638v-.1c.032 0 .046-.016.046-.045.275.03.443.291.506.782.061.459.107.997.138 1.611.061.613.168 1.258.32 1.934.154.643.461 1.166.92 1.565.061 0 .091-.032.091-.093.032-.091.062-.168.093-.229a.696.696 0 0 0-.137-.185.707.707 0 0 0-.137-.184c-.338-.522-.506-1.027-.506-1.52a7.2 7.2 0 0 0-.093-1.611l-.184-.643a4.844 4.844 0 0 0-.146-.679l.009.034a.298.298 0 0 0-.136-.138l-.002-.001a.41.41 0 0 1-.046-.184v-.047h.048c.304.123.504.384.595.784.123.368.2.797.23 1.288.061.491.138.982.23 1.474.091.461.306.845.643 1.152.127-.135.28-.244.45-.32l.009-.004c-.277-.245-.459-.613-.552-1.104.152 1.032.072.61-.007.189l-.222-1.432a3.992 3.992 0 0 1-.128-.29l-.011-.033a2.552 2.552 0 0 0-.144-.478l.006.018-.275-.643v-.048c.214 0 .413.17.597.507.184.307.352.661.506 1.059.154.4.291.784.414 1.152.122.368.229.613.32.736.062 0 .154-.016.277-.046.152-.03.259-.045.32-.045a8.779 8.779 0 0 0-.753-1.319l.019.029-.734-1.29.046-.138.229.091c.214.184.414.43.597.736l.552.922c.214.277.429.522.643.736.221.201.506.335.821.367l.006.001a15.93 15.93 0 0 1-.945-1.033l-.02-.025a35.918 35.918 0 0 1-.827-1.152c.154.062.352.216.597.461.277.216.536.461.781.736.277.246.522.477.736.691.245.186.443.277.597.277.123 0 .23-.077.322-.23a8.23 8.23 0 0 1-1.006-.482l.041.022c-.368-.245-.627-.475-.781-.69.18.079.469.188.762.288l.111.033a4.9 4.9 0 0 0 .963.093h.139c.061 0 .122-.046.182-.139a.54.54 0 0 1 .182-.183l.002-.001v-.046a11.49 11.49 0 0 1-1.863-.195l.071.011a5.008 5.008 0 0 1-.997-.287l.033.012a1.57 1.57 0 0 1-.597-.415l-.001-.002c.522-.061 1.104-.014 1.746.139a9.792 9.792 0 0 0 1.838.184c.091 0 .138-.061.138-.184v-.046c0-.03-.154-.061-.459-.091-.307-.032-.49-.062-.552-.093-.091 0-.306-.016-.643-.046-.336-.03-.688-.045-1.056-.045a74.675 74.675 0 0 1-1.011-.093c-.306-.032-.49-.061-.55-.091a2.137 2.137 0 0 1-.553-.369l.001.001.046-.048c.704.093 1.456.17 2.251.23.797.062 1.562.093 2.296.093h.184l-.045-.277a4.552 4.552 0 0 0-.86-.137l-.014-.001a4.657 4.657 0 0 0-.821-.093h-.006c-.245 0-.566.016-.965.048h-1.24a6.931 6.931 0 0 1-1.242-.196l.048.01c-.368-.093-.629-.23-.782-.414v-.046h.184c.582 0 1.149.048 1.701.139.55.061 1.117.091 1.699.091.398 0 .766.046 1.104.138a6.58 6.58 0 0 0 1.101.093h.093l-.093-.138a3.61 3.61 0 0 0-1.359-.459l-.018-.002a6.832 6.832 0 0 0-1.379-.138c-.336 0-.643.016-.918.045-.245.032-.52.048-.827.048H5.644c-.24 0-.477-.017-.708-.051l.026.003c-.184-.03-.275-.091-.275-.184v-.043c.52 0 1.024-.032 1.515-.093a8.82 8.82 0 0 1 1.517-.138c.55 0 1.133.061 1.744.184.614.123 1.181.261 1.701.414.032 0 .046-.032.046-.093 0-.091-.17-.184-.506-.275a11.128 11.128 0 0 0-.959-.342l-.097-.026a7.752 7.752 0 0 0-1.147-.27l-.048-.006a3.69 3.69 0 0 0-.721-.138l-.015-.001c-.079.055-.17.102-.267.137l-.008.003c-.078.036-.17.068-.266.089l-.009.002c-.079.056-.17.104-.268.137l-.007.002c-.164.043-.302.09-.436.146l.021-.008a1.925 1.925 0 0 0-.368.138c-.065.02-.143.036-.222.046l-.007.001-.034.001a.644.644 0 0 1-.337-.094l.003.002a1.502 1.502 0 0 0-.223-.182l-.005-.003h-.015a1.34 1.34 0 0 0-.5.096l.009-.003a1.647 1.647 0 0 1-.413.046c-.277 0-.475-.093-.598-.277.032-.061.123-.107.277-.138.184-.062.306-.109.368-.139l-.323-.184zm8.408-4.096c.613.152 1.224.368 1.837.643a8.23 8.23 0 0 0 1.883.507l.048.045a.444.444 0 0 1-.274.183l-.003.001h-.368c-.49 0-1.026-.138-1.608-.414a3.606 3.606 0 0 0-1.651-.414h-.002a.436.436 0 0 0-.321.139.56.56 0 0 1-.308.091h-.106v.277c.429.032.811.077 1.149.138.336.062.688.123 1.056.184.154 0 .384.016.69.048.306.029.506.075.597.138l.046.045c0 .154-.091.246-.275.277a2.598 2.598 0 0 1-.414.046 3.668 3.668 0 0 1-1.402-.286l.024.009a3.401 3.401 0 0 0-1.355-.277h-.161l-.275.554c.368.03.736.077 1.104.138.397.061.81.093 1.238.093h.598l.091.045c-.154.154-.384.23-.688.23h-1.84a20.86 20.86 0 0 0-.785-.076l-.226-.015h-.229c-.032 0-.046.03-.046.091 0 .062.032.123.091.184.062.063.11.14.138.226l.001.004c.429 0 .842-.03 1.24-.091a8.83 8.83 0 0 1 1.286-.093h.138c.061 0 .091.016.091.046 0 .123-.122.23-.368.322a10.55 10.55 0 0 1-.786.172l-.086.013-.918.091h-.552v.046c.093.154.184.23.277.23.245 0 .443-.032.597-.093.184-.061.398-.091.643-.091l.091.045c-.14.204-.348.352-.59.414l-.007.002c-.245.029-.49.045-.736.045 0 .032-.014.046-.045.046 0 .061.046.123.138.184.09.029.167.076.23.138l.091-.045c-.061.061-.077.138-.046.229.032.093.062.17.093.23.174-.116.314-.271.41-.453l.003-.007c.154-.216.307-.4.459-.554l.23-.046v.048c0 .213-.154.49-.459.827-.307.338-.459.614-.459.829 0 .123.016.246.045.368a.564.564 0 0 1 .093.311v.012-.001c.152-.214.275-.461.368-.736.091-.307.182-.6.275-.875.091-.277.214-.538.368-.784.152-.245.368-.445.642-.598-.229.45-.419.973-.542 1.521l-.009.045c-.093.522-.184 1.029-.275 1.52v.091l.642-.368c.032-.093.062-.323.093-.691.061-.368.122-.752.184-1.152.053-.412.15-.784.286-1.137l-.011.033c.123-.338.291-.506.506-.506h.046v.045c-.429.859-.643 1.842-.643 2.947l.045.368h.506c.032-.214.046-.506.046-.874s.016-.738.046-1.106c.03-.368.091-.706.182-1.013.093-.338.246-.584.461-.736l.091.045c-.065.56-.161 1.06-.292 1.545l.017-.073a7.537 7.537 0 0 0-.138 1.458v.065-.003.691l.413.093h.091c0-.154-.016-.461-.045-.922 0-.459.016-.936.045-1.427a8.49 8.49 0 0 1 .184-1.334c.123-.4.322-.614.597-.645.123-.062.261-.139.414-.23.139-.108.249-.248.317-.409l.003-.007a4.391 4.391 0 0 1-1.537-.517l.022.011a13.98 13.98 0 0 0-1.367-.652l-.102-.037c-.336 0-.568-.048-.69-.139a.668.668 0 0 0-.407-.138h-.099l-.091.598zM27.104 24.08c.429.4.766.845 1.011 1.336.275.491.506 1.013.688 1.565l-.368.368a9.483 9.483 0 0 0-.937-1.783l.022.034a4.146 4.146 0 0 0-1.271-1.326l-.015-.01a6.939 6.939 0 0 0-1.377-.765l-.047-.017a17.334 17.334 0 0 1-1.563-.736h.046c.306.061.627.123.965.184.368.061.72.154 1.056.277.336.091.659.214.965.368.336.123.613.291.827.506zm-18.88 5.664a3.928 3.928 0 0 1-.564-.329l.012.008v-.048c0-.643.077-1.165.229-1.565.184-.429.414-.813.69-1.152.289-.351.589-.666.911-.958l.007-.007a9.292 9.292 0 0 0 1.104-1.106h.091a2.77 2.77 0 0 1-.555 1.016l.003-.004c-.3.41-.57.755-.852 1.091l.026-.032a9.628 9.628 0 0 0-.782 1.243 3.601 3.601 0 0 0-.32 1.568v-.003.277zm18.696-1.013a7.204 7.204 0 0 0-1.153-1.71l.005.006a11.986 11.986 0 0 0-1.227-1.231l-.015-.013a31.672 31.672 0 0 1-.965-.92c-.245-.277-.368-.554-.368-.829v-.048h.093c.429.432.858.83 1.286 1.198.429.338.842.691 1.24 1.059.336.4.629.768.874 1.104.275.339.49.677.643 1.014l-.414.368zM8.774 30.066v-.091c0-.922.245-1.811.736-2.672.49-.89.963-1.718 1.424-2.485l.045-.046c.093 0 .138.061.138.184 0 .277-.107.598-.32.966-.186.368-.4.768-.645 1.198-.214.429-.429.89-.643 1.381a3.867 3.867 0 0 0-.275 1.446v.027-.001.323l-.459-.23zM2.802 18.371c0 .032-.016.061-.045.093v.045c0 .338.016.661.045.968.062.306.093.629.093.966 0 .154-.016.414-.046.784 0 .336-.016.704-.046 1.104v1.059c.032.307.077.506.139.598.152.122.229.198.229.23.032 0 .077.061.138.184.123.03.277.046.459.046h.093a2.962 2.962 0 0 1-.55-1.367l-.002-.015a25.416 25.416 0 0 1-.045-1.547V21.5v.001-1.611c0-.554-.107-1.09-.322-1.613l-.139.093zm4.32 10.728-.461-.277c.093-.829.184-1.427.277-1.795.091-.4.229-.706.413-.92.244-.233.534-.42.854-.547l.018-.006c.368-.184.89-.459 1.563-.829.123-.062.229-.139.32-.23a.835.835 0 0 1 .362-.273l.006-.002c-.152.4-.413.704-.781.92-.336.184-.704.416-1.102.691a3.86 3.86 0 0 0-1.046 1.135l-.01.017c-.275.459-.414 1.15-.414 2.07v.048zm20.672-1.104c-.336-.861-.797-1.566-1.379-2.118a10.289 10.289 0 0 0-1.605-1.171l-.048-.026a6.31 6.31 0 0 1-1.555-1.282l-.006-.007-.048-.139.048-.184c.122 0 .32.123.597.368.306.246.52.432.643.554.306.184.627.368.965.552.336.154.658.368.965.645a7.734 7.734 0 0 1 1.634 2.525l.018.052-.229.23zm-16.263-2.304c0 .432-.062.861-.184 1.29-.123.4-.261.814-.414 1.243-.152.4-.29.814-.413 1.243a4.73 4.73 0 0 0-.184 1.323v.014-.001l-.459-.23v-.138c0-.707.107-1.352.322-1.934l.736-1.842.182-.736c.123-.368.214-.554.277-.554h.045a.741.741 0 0 1 .093.321v.002zM10.475 10.36c0 .307.045.706.136 1.197.081.356.131.768.139 1.191v.006c0 .43-.032.859-.093 1.29-.03.4-.046.813-.046 1.243v.184h.139c.122-.091.214-.277.275-.552.091-.277.154-.584.184-.922.03-.368.045-.706.045-1.013.032-.336.048-.582.048-.736 0-.4-.064-.736-.186-1.013-.091-.307-.306-.6-.643-.875zm1.653 16.528c0 .707-.107 1.429-.322 2.165a8.912 8.912 0 0 0-.275 2.165 2.888 2.888 0 0 1-.57-.191l.018.007v-.323c0-.613.093-1.197.275-1.749a9.592 9.592 0 0 0 .461-1.704 2.4 2.4 0 0 0 .045-.461v-.506c0-.032.032-.048.093-.048s.122.093.184.278c.043.107.075.231.091.361l.001.007zm13.874 2.534a8.548 8.548 0 0 0-.929-1.349l.011.013a21.743 21.743 0 0 0-.905-1.192l.032.04c-.224-.269-.45-.569-.662-.879l-.026-.041a1.594 1.594 0 0 1-.23-.781v-.094h.046c.061.032.122.139.184.323.429.613.888 1.152 1.376 1.611.522.461.997.966 1.426 1.52.123.184.198.32.23.414l-.552.414zM1.058 10.174c.034-.139.065-.246.1-.351l-.009.031c.03-.123.077-.262.138-.416a5.568 5.568 0 0 1 1.149-.23 6.73 6.73 0 0 0 1.331-.368c.032-.03.107-.091.23-.184l.459-.277c.154-.091.291-.168.413-.229a.806.806 0 0 1 .225-.092l.005-.001c.091 0 .138.032.138.093v.138a.526.526 0 0 1-.046.23 2.598 2.598 0 0 1-.856.638l-.016.007a9.63 9.63 0 0 1-1.104.322 61.76 61.76 0 0 1-1.147.277c-.368.091-.704.23-1.011.414zm17.134 21.781a4.963 4.963 0 0 0-1.031-.769l-.025-.013a17.434 17.434 0 0 0-.908-.487l-.241-.112a23.69 23.69 0 0 1-.965-.507c-.275-.154-.414-.307-.414-.459h.048c.152 0 .397.061.734.184.336.122.688.275 1.056.461.398.152.75.306 1.056.459.336.154.552.261.643.323l.643.736-.597.184zM1.93 8.058l.965-.138a4.22 4.22 0 0 0 1.149-.416 7.217 7.217 0 0 1 1.194-.552h.046c.03 0 .061.016.091.048v.045a.832.832 0 0 1-.365.689l-.003.002a3.16 3.16 0 0 1-.896.453l-.023.006c-.368.093-.765.184-1.194.277-.429.061-.843.123-1.24.184l.275-.598zM17.274 0c.184 0 .368.016.55.046.184 0 .352.016.506.046a3.5 3.5 0 0 0-1.526.606l.011-.007c-.469.304-.874.607-1.258.934l.017-.014a9.897 9.897 0 0 1-1.106.805l-.041.024c-.4.246-.858.368-1.379.368h-.138c-.061-.03-.091-.077-.091-.138l.138-.138c.245-.093.506-.154.781-.184.306-.062.597-.17.872-.323a6.235 6.235 0 0 0 1.104-.966c.368-.43.765-.784 1.194-1.059h.368zm8.084 29.837a75.348 75.348 0 0 0-.597-.784l-.643-.829a30.626 30.626 0 0 1-.506-.782 1.818 1.818 0 0 1-.184-.732v-.234c.093 0 .214.107.368.322.154.184.32.43.506.736.214.309.429.661.643 1.061.245.368.459.736.643 1.104l-.23.139zM12.45 31.493a.735.735 0 0 0-.32-.091h-.002a2.492 2.492 0 0 1-.046-.489v-.02.001-1.288c0-.277.016-.554.046-.829.032-.277.061-.538.091-.784.032-.275.077-.491.139-.643l.091-.093c.061 0 .107.061.138.184.05.064.084.142.093.228v.232c0 .522-.048 1.027-.139 1.52a7.29 7.29 0 0 0-.138 1.433v.041-.002.23c0 .093.016.214.046.368zM14.978.138h.413a1.73 1.73 0 0 1 .413-.045c-.232.232-.457.472-.673.719l-.015.017a4.606 4.606 0 0 1-.639.687l-.005.005a2.986 2.986 0 0 1-.781.552 2.439 2.439 0 0 1-.94.185l-.073-.001h.004l-.048-.046c-.059-.061.032-.138.277-.23.275-.091.445-.168.506-.229.336-.154.613-.384.827-.691l.736-.922zm-1.517 31.585a1.422 1.422 0 0 0-.41-.091h-.005a14.576 14.576 0 0 1-.091-1.653v-1.802c0-.091.016-.138.046-.138.061 0 .122.062.182.184.062.093.107.17.138.23.093.614.139 1.213.139 1.797v1.472zM2.71 6.859c.49-.091.995-.229 1.517-.413.52-.184.856-.277 1.01-.277.093 0 .138.061.138.184 0 .246-.32.445-.965.598a20.68 20.68 0 0 1-1.926.397l-.141.019.368-.507zm7.994-5.707c.214-.061.413-.122.597-.184.214-.061.445-.122.688-.184a1.831 1.831 0 0 1-.458.784c-.184.184-.491.275-.92.275h-.963c-.277 0-.536.032-.782.093a7.96 7.96 0 0 1 .736-.323c.275-.123.55-.23.827-.322h.413l-.046-.094c-.03 0-.061-.016-.091-.046zm3.078 27.856c.182.246.306.63.368 1.152.091.522.152 1.074.182 1.658a1.63 1.63 0 0 1-.459-.046c-.061-.614-.123-1.197-.184-1.749-.04-.306-.072-.687-.09-1.073l-.001-.032v-.046l.184.139zm8.224 2.165h-.323a2.24 2.24 0 0 1-.459.046c.184-.214.384-.416.597-.598.245-.216.49-.461.736-.736l.643-.83v-.046c.03 0 .045.016.045.048 0 .429-.107.797-.32 1.104-.216.307-.445.629-.69.966a.386.386 0 0 1-.184.046h-.047zm2.432-.829a22.76 22.76 0 0 1-.651-1.123l-.084-.167a2.937 2.937 0 0 1-.275-1.147v-.096c0-.061.016-.091.046-.091.122.091.306.368.55.829.277.461.552.997.827 1.611l-.413.184zM8.774 17.453c-.061 0-.123.03-.184.091a.57.57 0 0 1-.225.136l-.004.001-.093.093v.046c.429.061.874.184 1.333.368s.902.307 1.331.368v-.046c-.061-.091-.198-.198-.413-.322a3.095 3.095 0 0 0-.621-.316l-.022-.007a2.832 2.832 0 0 0-.623-.27l-.021-.005a1.365 1.365 0 0 0-.452-.139l-.007-.001zM3.584 5.8c.336 0 .688-.093 1.056-.277.061-.03.168-.091.32-.184.155-.091.262-.138.323-.138.122 0 .184.077.184.23-.245.275-.598.491-1.056.645a6.783 6.783 0 0 1-1.261.227l-.027.002.461-.506zm11.024 26.061c-.152-.861-.229-1.504-.229-1.934v-.091h.046c.182.184.32.459.413.829.123.368.214.768.275 1.197h-.506zm7.994-20.213a1.146 1.146 0 0 1-.547.184h-.004c-.214.03-.336.077-.368.138a6.229 6.229 0 0 1-.149.643l.011-.045c-.032.093-.184.214-.459.368v.277c.275-.214.536-.414.781-.598s.536-.352.874-.507l-.139-.459zM14.011.277c-.245.368-.475.704-.688 1.013-.184.275-.4.414-.643.414-.184 0-.277-.046-.277-.139 0-.061.046-.122.138-.184a.438.438 0 0 1 .229-.091h.002c.146-.116.268-.253.364-.409l.004-.007c.122-.152.245-.32.368-.506l.504-.091zM17.595 32a4.064 4.064 0 0 1-.535-.147l.03.009-.552-.093a26.275 26.275 0 0 0-.872-.691c-.245-.184-.368-.306-.368-.368.368.123.752.277 1.149.461a4.38 4.38 0 0 1 1.149.829zm10.611-16.392c-.091 0-.214.016-.368.048-.152.029-.229.106-.229.229l.091.046c.336.061.704.154 1.104.275.397.093.72.139.963.139h.048v-.046c0-.032-.078-.077-.23-.138a2.246 2.246 0 0 0-.536-.227l-.016-.004a3.976 3.976 0 0 0-.522-.222l-.03-.009a1.232 1.232 0 0 0-.267-.091l-.008-.002zm-3.95 14.827a1.78 1.78 0 0 1-.4.181l-.013.003a4.405 4.405 0 0 1-.368-1.749v-.002c.061 0 .091.032.091.093a.575.575 0 0 0 .093.138c.122.214.229.43.32.645.093.214.184.445.277.691zm-8.637-10.637c.214.093.398.214.552.368v-.645c0-.091-.077-.261-.23-.506a3.484 3.484 0 0 1-.313-.711l-.007-.025v1.52zm.688-6.076a.777.777 0 0 1-.363.137h-.188a.195.195 0 0 0-.185.001l.001-.001c.154.061.414.184.782.368s.627.277.781.277l.32-.184a2.097 2.097 0 0 1-.604-.282l.007.005a5.008 5.008 0 0 0-.521-.308l-.029-.013zm.323 6.076v.507c0 .184-.016.352-.046.506.04.066.071.143.09.225l.001.005c0 .032.032.093.093.184.122-.061.184-.168.184-.322.024-.139.072-.262.14-.372l-.003.004v-.645l-.459-.093zm-7.718-2.67 1.562.598.048-.046c0-.122-.17-.275-.507-.459a9.154 9.154 0 0 0-.583-.338l-.06-.03a.357.357 0 0 0-.139.046l.002-.001h-.138l-.184.23zm2.803-3.04c.061 0 .107-.045.138-.138l.091-.368c.032-.154.046-.291.046-.414v-.782c0-.123-.093-.291-.275-.507v2.211zM.781 20.952a8.88 8.88 0 0 0-.292-1.262l.017.063a3.91 3.91 0 0 1-.182-.761l-.002-.021c.245.522.398 1.182.459 1.981zm.736-2.118v.23c0 .091.016.306.045.643.061.307.123.523.184.645.058-.145.091-.313.091-.489v-.018.001-.92c0-.155-.016-.307-.045-.461h-.048v.045l-.23.323zM4.592 4.789c.154-.062.275-.107.368-.139a.56.56 0 0 1 .308-.091h.013-.001c.093 0 .139.032.139.091 0 .154-.138.277-.413.368-.277.064-.552.123-.827.186l.413-.416zm10.75 27.072c-.032-.182-.061-.352-.093-.506v-.414h.048c.182.184.366.461.55.829l-.506.093zM12.955.509a5.69 5.69 0 0 1-.73.777l-.006.005h-.043v-.187l.091-.184.093-.277.597-.138zM9.693 16.528l.414.277h.091v-.048c0-.091-.046-.182-.138-.275-.091-.123-.184-.184-.275-.184l-.046.046-.046.184zm17.963 4.973c.06.12.155.215.272.274l.003.002c.079.047.172.08.272.092H28.344l-.229-.23c-.093-.123-.2-.184-.322-.184-.061 0-.107.016-.138.046zm-4.87 9.44c.098-.166.174-.286.252-.405l-.022.035a2.8 2.8 0 0 1 .229-.277l.046.093v.046a.42.42 0 0 1-.046.184v.184l-.459.138zm-5.559-17.13c.069.067.144.127.225.18l.006.004c.091.032.168.062.229.093v-.093a.451.451 0 0 0-.394-.231h-.02.001l-.046.048zM8.085 2.349a.576.576 0 0 1 .318-.229l.004-.001.459-.184-.781.414zM1.562 17.264c0 .062.016.154.046.277.032.093.061.138.091.138h.048l-.093-.459-.093.045zm27.656-1.658c.066.04.142.072.223.092l.006.001c.093 0 .139-.016.139-.046 0-.061-.032-.091-.093-.091l-.275.045zm-5.696 14.965c0 .032.03.077.091.138a.386.386 0 0 1-.184.046v-.322l.046.091c0 .032.016.046.046.046zm5.144-15.149c-.122-.122-.214-.184-.275-.184l-.046.046.322.138zM22.373 2.853v-.046c0-.091-.016-.138-.046-.138l-.091.093.138.091zm6.569 12.662c-.032 0-.048.016-.048.046h.048v-.048zm-9.374 16.117-.045-.093h.045v.093zM8.178 5.203l.045.046v-.048h-.045zm14.883.461c.062 0 .093-.016.093-.048-.032 0-.061.016-.093.048zm-5.466 14.549h-.046c0 .032.016.046.046.046v-.046zM5.328 4.144c-.032.032-.048.061-.048.091l-.091.048.139-.139zm23.429 11.328-.046-.048v.048h.046zm.091 0-.046.045h.048v-.046zm10.813 15.792c-.4 0-.781.03-1.149.091a4.608 4.608 0 0 1-1.13.138h-.02.001c-.429 0-.736-.138-.918-.414a2.34 2.34 0 0 1-.275-.959v-.007a6.921 6.921 0 0 1 0-1.152c.03-.398.045-.704.045-.92 0-.184.046-.352.138-.506.081-.147.132-.32.139-.505v-.012a.75.75 0 0 0-.23-.542 1.13 1.13 0 0 1-.184-.62v-.026.001-.416a.98.98 0 0 1 .274-.412l.001-.001v-2.256a4.405 4.405 0 0 1-.502-1.544l-.002-.023a16.288 16.288 0 0 1-.093-1.652v-.006c0-.214.016-.398.046-.552.03-.184.046-.384.046-.598 0-.245-.048-.491-.139-.736a2.172 2.172 0 0 1-.138-.768v-.017.001c0-.275.046-.536.139-.782.091-.275.138-.568.138-.875a3.5 3.5 0 0 0-.048-.598 3.2 3.2 0 0 1-.045-.546V13.906c0-.062.032-.2.093-.416.091-.245.138-.398.138-.459v-.23a1.436 1.436 0 0 0-.141-.328l.004.007a2.419 2.419 0 0 1-.09-.351l-.003-.017c-.03-.032-.046-.123-.046-.277a.198.198 0 0 0-.045-.139v-.033c0-.222.051-.433.142-.62l-.004.008c.115-.167.184-.374.184-.597v-.001c0-.245-.046-.475-.138-.69a2.449 2.449 0 0 1-.093-.676v-.016.001c0-.277.061-.522.184-.736.116-.226.184-.493.184-.776v-.008c0-.368-.046-.736-.138-1.104a4.641 4.641 0 0 1-.138-1.134v-.019.001c0-.184.016-.352.045-.506.062-.184.093-.368.093-.554 0-.368-.032-.72-.093-1.058a12.706 12.706 0 0 1-.045-1.093v-.013.001-.645c.091-.245.306-.429.643-.552a4.887 4.887 0 0 1 1.194-.323c.372-.057.802-.09 1.239-.091h.001c.429-.032.752-.046.965-.046 1.226 0 2.451.061 3.675.184 1.226.093 2.466.138 3.722.138h.413a1.5 1.5 0 0 0 .459-.091h3.859a5.97 5.97 0 0 0 1.608.23c.522 0 1.088.091 1.701.275 1.776.554 3.307 1.366 4.592 2.442a14.184 14.184 0 0 1 3.137 3.531l.035.059a15.843 15.843 0 0 1 1.837 4.328c.4 1.504.598 2.992.598 4.467 0 .459-.077.936-.23 1.427a5.391 5.391 0 0 0-.274 1.363l-.001.018a12.464 12.464 0 0 1-1.869 5.716l.031-.052c-1.072 1.718-2.526 3.222-4.363 4.512a2.119 2.119 0 0 1-1.104.414c-.368.03-.72.122-1.056.275-.55.216-1.088.43-1.608.645-.49.216-.995.416-1.515.598a8.916 8.916 0 0 1-1.552.408l-.056.008a8.26 8.26 0 0 1-1.75.183h-.094.005c-.52 0-1.04-.03-1.562-.091a25.854 25.854 0 0 0-1.561-.046c-.918 0-1.792.107-2.619.323h-3.123c-.29 0-.56-.086-.786-.234l.006.003a1.533 1.533 0 0 0-.733-.185l-.05.001h.002zm39.064.091c-.336 0-.659.032-.965.093-.284.087-.61.138-.948.138h-.017.001c-.52 0-.918-.077-1.194-.23a1.431 1.431 0 0 1-.64-.546l-.003-.006a2.398 2.398 0 0 1-.23-.867v-1.112c0-.216.016-.4.046-.554.03-.184.046-.368.046-.552v-.026a.743.743 0 0 0-.141-.437l.001.002a1.331 1.331 0 0 1-.091-.49v-.018.001c0-.214.061-.414.184-.598a.915.915 0 0 0 .229-.598c0-.245-.03-.491-.091-.736a3.713 3.713 0 0 1-.091-.829c0-.246.03-.491.091-.736.061-.246.091-.493.091-.738 0-.338-.045-.675-.138-1.013a4.278 4.278 0 0 1-.138-1.058v-.002c0-.368.046-.736.138-1.104.093-.368.138-.738.138-1.106s-.138-.8-.413-1.29a12.997 12.997 0 0 0-1.033-1.55l.022.03a15.132 15.132 0 0 0-1.165-1.539l.016.019c-.397-.49-.72-.89-.963-1.197a6.396 6.396 0 0 1-.948-1.434l-.017-.038a9.76 9.76 0 0 0-.895-1.599l.021.032c-.17-.215-.395-.514-.617-.817l-.071-.103-.736-1.013a8.897 8.897 0 0 0-.788-1.023l.007.008a7.061 7.061 0 0 0-.69-.831l.002.002c-.154-.122-.4-.414-.736-.874a31.612 31.612 0 0 1-1.011-1.474c.056.139-.218-.327-.489-.795l-.338-.632c-.245-.461-.368-.752-.368-.875 0-.307.123-.507.368-.598.235-.087.507-.138.791-.138h.038-.002c.368 0 .704.045 1.011.138.336.061.672.091 1.01.091s.629-.077.874-.229c.275-.186.582-.277.918-.277.245 0 .459.016.643.046.214.03.445.045.688.045.277 0 .522-.016.736-.045.22-.03.476-.047.735-.048h.001c.275 0 .536.078.781.232.245.123.506.184.781.184.154 0 .291-.016.413-.046.136-.057.293-.091.459-.091l.047-.001c.334 0 .64.122.875.324l-.002-.001c.245.214.443.475.597.784.184.275.32.566.413.874.123.307.23.568.322.784.214.429.414.704.597.827.184.093.352.2.506.323.154.091.291.275.414.552.154.245.291.72.413 1.427.061.184.2.445.414.784.245.306.504.459.781.459.182 0 .443-.246.781-.736.368-.491.75-1.045 1.149-1.658.429-.645.842-1.259 1.24-1.842.429-.584.765-.968 1.01-1.152l.414-.829c.154-.245.32-.429.506-.552.191-.156.423-.269.678-.321l.01-.002c.307-.091.72-.138 1.242-.138.245 0 .459.046.643.138.214.062.443.093.688.093s.459-.016.643-.046a2.49 2.49 0 0 1 1.35.004l-.018-.004a4.272 4.272 0 0 0 1.264-.003l-.023.003a1.99 1.99 0 0 1 .603-.092h.042-.002c.552 0 1.056.03 1.517.091.459.061.995.077 1.608.046.182 0 .397.091.643.277v.368c0 .429-.139.768-.414 1.013-.245.245-.52.538-.827.875a.743.743 0 0 0-.229.648v-.004a.807.807 0 0 1-.139.693l.001-.002a5.469 5.469 0 0 1-.955 1.006l-.01.008a4.282 4.282 0 0 0-.469.326l.008-.006c-.183.15-.347.301-.503.46l-.001.001a2.99 2.99 0 0 0-.314.49l-.008.017c-.074.133-.213.42-.347.711l-.068.165-.459.92a9.852 9.852 0 0 1-1.25 1.808l.01-.012-1.011 1.197a1.466 1.466 0 0 1-.541.411l-.009.004c-.234.11-.423.284-.549.5l-.003.006a1.522 1.522 0 0 0-.137.694v-.003c0 .245-.016.445-.046.598a.59.59 0 0 1-.227.367l-.002.001-.302.303-.02.02c-.135.18-.241.315-.348.448l.026-.034a.918.918 0 0 0-.23.549v.003c0 .032-.03.077-.091.138a.347.347 0 0 0-.046.138v.002a84.97 84.97 0 0 1-1.011.69c-.245.186-.368.461-.368.829 0 .184.032.368.093.554.059.154.093.333.093.519v.035-.002c0 .461-.077.936-.23 1.427a5.574 5.574 0 0 0-.184 1.438v.037-.002c0 .522.077 1.074.23 1.658.184.552.275 1.09.275 1.611 0 .43-.061.845-.184 1.243-.122.4-.184.814-.184 1.243 0 .184.016.368.046.552.058.145.091.313.091.489v.019-.001c0 .154-.03.291-.091.414a1.65 1.65 0 0 0-.046.414c0 .214.032.429.093.645.091.214.152.414.184.598v.046c0 .461-.17.782-.506.966a2.532 2.532 0 0 1-1.137.413l-.011.001a4.905 4.905 0 0 1-1.394.092l.016.001h-1.242c-.306 0-.597-.062-.872-.186a2.299 2.299 0 0 0-.791-.138h-.038.002zm17.073-5.433c0-.336.046-.659.138-.966.093-.336.139-.675.139-1.013 0-.245-.032-.491-.093-.736a3.541 3.541 0 0 1-.091-.783v-.001c0-.184.03-.368.091-.552a1.755 1.755 0 0 0-.003-1.116l.004.012a1.463 1.463 0 0 1-.092-.514l.001-.041v.002c0-.429.245-.645.736-.645.52 0 .933.17 1.238.507.307.307.659.582 1.056.829a64.597 64.597 0 0 0 3.4 1.979c1.165.584 2.48.875 3.952.875.245 0 .49-.016.734-.046.275-.03.52-.077.736-.138.233-.083.432-.209.597-.368h-.001a.807.807 0 0 0 .229-.565l-.001-.035v.002c0-.246-.198-.507-.597-.784a6.38 6.38 0 0 0-1.429-.858l-.041-.016a15.984 15.984 0 0 0-1.856-.836l-.119-.039a38.438 38.438 0 0 0-2.16-.829c.148.027-.458-.222-1.067-.465l-.77-.271a8.62 8.62 0 0 1-1.277-.668l.036.021a8.145 8.145 0 0 1-1.598-1.459l-.01-.013a12.402 12.402 0 0 1-1.253-1.782l-.032-.06a12.66 12.66 0 0 1-.802-1.978l-.025-.094a7.701 7.701 0 0 1-.277-1.976v-.005c0-.277.048-.538.139-.784.087-.257.138-.552.138-.859v-.015.001a1.22 1.22 0 0 0-.096-.469l.003.008a1.703 1.703 0 0 1-.091-.552c0-1.074.352-2.086 1.056-3.04.74-.98 1.622-1.804 2.624-2.461l.04-.024a13.606 13.606 0 0 1 3.441-1.631l.098-.026c1.285-.43 2.51-.645 3.675-.645.336 0 .659.061.965.184.307.093.643.17 1.011.23.674.154 1.531.291 2.573.414 1.04.093 2.037.261 2.986.507.981.245 1.808.613 2.48 1.104.704.461 1.056 1.136 1.056 2.026 0 .154-.014.323-.045.507-.03.154-.046.307-.046.461v.025c0 .231.069.445.187.625l-.003-.004a1.125 1.125 0 0 1 .09 1.065l.003-.007a.898.898 0 0 0-.093.402v.015-.001.091c.062.061.107.214.139.461.061.245.106.4.138.461v.045c0 .216-.016.384-.048.507v.002c0 .13-.016.256-.047.377l.002-.011c0 .093-.016.214-.045.368 0 .154.014.368.045.645-.154.277-.429.416-.827.416l-.079.001c-.522 0-1.016-.12-1.456-.333l.02.009-1.286-.736a1.697 1.697 0 0 0-.777-.186h-.004a3.202 3.202 0 0 1-.758-.192l.022.008a65.544 65.544 0 0 0-2.205-.875 5.702 5.702 0 0 0-2.264-.46l-.083.001h.004c-.184 0-.413.016-.688.045a2.64 2.64 0 0 0-.829.139 1.601 1.601 0 0 0-.691.324l.003-.002a.578.578 0 0 0-.275.492v.016-.001c0 .275.213.568.642.874.429.307.965.614 1.608.922a39.1 39.1 0 0 0 2.206.92c.795.307 1.562.614 2.296.922.736.307 1.394.614 1.976.922.613.306 1.056.613 1.331.92 1.104 1.227 1.869 2.517 2.298 3.867.429 1.32.643 2.763.643 4.328v1.429a8.273 8.273 0 0 1-1.484 3.01l.014-.018a10.75 10.75 0 0 1-2.491 2.417l-.035.023a12.61 12.61 0 0 1-3.217 1.586l-.09.026a11.582 11.582 0 0 1-3.712.599h-.059.003c-1.592 0-3.216-.198-4.869-.598a19.65 19.65 0 0 1-4.564-1.709l.108.052a48.282 48.282 0 0 0-1.424-.69 2.738 2.738 0 0 1-.686-.551l-.002-.003a1.633 1.633 0 0 1-.187-.765l.001-.067v.003-1.658zm26.111 0c0-.336.046-.659.138-.966.093-.336.138-.675.138-1.013 0-.245-.03-.491-.091-.736a3.536 3.536 0 0 1-.093-.782v-.002c0-.184.032-.368.093-.552a1.755 1.755 0 0 0-.003-1.116l.004.012a1.465 1.465 0 0 1-.093-.519v-.036.002c0-.429.245-.645.736-.645.52 0 .934.17 1.24.507.307.307.659.582 1.056.829a64.597 64.597 0 0 0 3.4 1.979c1.165.584 2.48.875 3.952.875.245 0 .49-.016.734-.046.275-.03.52-.077.736-.138.232-.083.43-.209.596-.368a.807.807 0 0 0 .231-.567l-.001-.033v.002c0-.246-.198-.507-.597-.784a6.386 6.386 0 0 0-1.43-.858l-.042-.016a15.984 15.984 0 0 0-1.856-.836l-.119-.039a37.854 37.854 0 0 0-2.16-.829c.145.025-.462-.223-1.071-.466l-.766-.27a8.703 8.703 0 0 1-1.276-.668l.036.021a8.145 8.145 0 0 1-1.598-1.459l-.01-.013a12.385 12.385 0 0 1-1.254-1.782l-.032-.06a12.66 12.66 0 0 1-.802-1.978l-.025-.094a7.703 7.703 0 0 1-.275-1.976v-.005c0-.277.046-.538.138-.784.093-.275.138-.566.138-.874a1.238 1.238 0 0 0-.094-.469l.003.008a1.703 1.703 0 0 1-.091-.552c0-1.074.352-2.086 1.056-3.04a10.469 10.469 0 0 1 2.624-2.459l.04-.024A13.647 13.647 0 0 1 128.658.67l.098-.027c1.286-.43 2.512-.645 3.675-.645.336 0 .659.061.965.184.306.093.643.17 1.011.23.672.154 1.531.291 2.573.414 1.04.093 2.035.261 2.986.507.979.245 1.808.613 2.48 1.104.704.461 1.056 1.136 1.056 2.026 0 .154-.014.323-.045.507a2.286 2.286 0 0 0-.046.461v.025c0 .231.069.445.187.625l-.003-.004a1.13 1.13 0 0 1 .088 1.065l.003-.007a.897.897 0 0 0-.091.399v.018-.001.091c.061.061.107.214.138.461.061.245.107.4.138.461v.045c0 .216-.016.384-.045.507 0 .123-.016.245-.048.368 0 .093-.014.214-.045.368 0 .154.016.368.046.645-.154.277-.429.416-.827.416-.582 0-1.088-.109-1.515-.323l-1.286-.736a1.697 1.697 0 0 0-.777-.186h-.004a3.25 3.25 0 0 1-.758-.191l.022.008a68.179 68.179 0 0 0-2.205-.875 5.702 5.702 0 0 0-2.264-.46l-.083.001h.004c-.184 0-.414.016-.69.045-.275 0-.55.048-.827.139a1.601 1.601 0 0 0-.691.324l.003-.002a.578.578 0 0 0-.277.493v.015-.001c0 .275.214.568.643.874.429.307.965.614 1.608.922.674.307 1.408.614 2.205.92.797.307 1.563.614 2.298.922.736.307 1.392.614 1.976.922.611.306 1.056.613 1.331.92 1.104 1.227 1.869 2.517 2.298 3.867.429 1.32.643 2.763.643 4.328v1.429a8.273 8.273 0 0 1-1.484 3.01l.014-.018a10.758 10.758 0 0 1-2.493 2.417l-.035.023a12.61 12.61 0 0 1-3.217 1.586l-.09.025a11.582 11.582 0 0 1-3.712.599h-.058.003c-1.592 0-3.216-.198-4.869-.598a19.65 19.65 0 0 1-4.564-1.709l.108.052a21.526 21.526 0 0 0-1.147-.572l-.277-.117a2.722 2.722 0 0 1-.687-.551l-.002-.003a1.635 1.635 0 0 1-.185-.762l.001-.07v.003-1.658zm35.528 5.433c-.245 0-.49.032-.736.093a1.7 1.7 0 0 1-.676.138h-.013.001c-1.256 0-2.512-.061-3.768-.184a29.773 29.773 0 0 0-3.806-.137l.039-.001c-.429-.093-.688-.293-.781-.598a5.093 5.093 0 0 1-.093-.919v-.003c0-.338.062-.645.184-.922.154-.306.23-.629.23-.966 0-.307-.032-.598-.093-.875a8.844 8.844 0 0 1-.045-.911v-.009c0-.277.03-.522.091-.736.091-.246.138-.493.138-.738v-.007c0-.28-.104-.535-.276-.73l.001.001c-.144-.2-.231-.45-.231-.72v-.019.001-.461c.053-.197.149-.367.278-.506l-.001.001a10.155 10.155 0 0 1 .045-1.704c.062-.522.093-1.09.093-1.704v-1.152c-.061-.061-.123-.198-.184-.413a3.666 3.666 0 0 1-.046-.405l-.001-.011v-.045c0-.184.032-.352.093-.506.085-.161.136-.351.138-.553v-.001c0-.429-.093-.829-.275-1.197a3.376 3.376 0 0 1-.23-1.238v-.006c0-.184.046-.352.138-.507.087-.171.138-.374.138-.588v-.011.001c0-.275-.03-.552-.091-.829a3.929 3.929 0 0 1-.093-.86v-.014.001c0-.4.062-.768.184-1.106a2.63 2.63 0 0 0 .23-1.104c0-.4-.046-.784-.138-1.152a5.157 5.157 0 0 1-.139-1.196v-.001c0-.246.062-.477.184-.691.116-.197.184-.433.184-.686v-.005c0-.429-.061-.829-.184-1.197a5.213 5.213 0 0 1-.138-1.196c0-.277.032-.522.093-.736.061-.216.229-.416.504-.6.461-.061.965-.107 1.517-.138a14.24 14.24 0 0 1 1.562-.091c.307 0 .597.045.874.138.275.061.581.091.918.091.275 0 .536-.03.781-.091.245-.093.506-.138.781-.138.245 0 .459.045.643.138.184.061.398.091.643.091.184 0 .368-.03.552-.091.175-.082.379-.132.595-.138h.002c.245 0 .459.03.643.091.184.032.398.046.643.046.336 0 .643-.046.918-.138a2.691 2.691 0 0 1 1.011-.186c.306 0 .55.062.734.186.214.091.459.138.734.138.429 0 .827-.046 1.195-.138a4.175 4.175 0 0 1 1.24-.186c.827 0 1.608.048 2.344.139.765.091 1.562.123 2.389.091.336.062.643.184.918.368.306.186.459.432.459.738v.003c0 .222-.069.429-.186.599l.002-.004a1.058 1.058 0 0 0-.184.598c0 .43.046.829.138 1.197a5.48 5.48 0 0 1-.007 2.477l.007-.037c-.061.4-.075.814-.045 1.245-.093.306-.322.536-.69.69a6.865 6.865 0 0 1-1.24.277c-.459.03-.918.046-1.379.046h-.965l-.059.001c-.286 0-.551-.087-.771-.235l.005.003a.935.935 0 0 0-.665-.277h-.026.001c-.275 0-.566.046-.874.138-.306.062-.581.123-.826.186h-4.733c-.152 0-.259.061-.32.184a.498.498 0 0 0-.093.274v.001c0 .307.03.736.091 1.29.093.552.307.952.643 1.197h.459c.643 0 1.302-.046 1.976-.138a11.192 11.192 0 0 1 2.05-.184h.018-.001c.275 0 .536.03.781.091.245.062.506.093.781.093.459 0 .934-.016 1.424-.046a23.32 23.32 0 0 1 1.517-.046c.55 0 1.117.154 1.699.461.582.277.874.675.874 1.197v.056a6.25 6.25 0 0 1-.194 1.552l.009-.043c-.03.216-.061.462-.093.738a4.503 4.503 0 0 0 .002.942l-.002-.02c-.152.336-.229.613-.229.829v.184c0 .03.014.138.046.322.03.154.045.323.045.507.03.184.062.352.093.506.018.077.034.171.044.267l.001.009v.138c0 .584-.336.875-1.01.875a6.06 6.06 0 0 1-.736-.046 5.743 5.743 0 0 0-.734-.046c-.429 0-.888.016-1.378.048-.461.029-.92.045-1.379.045a9.952 9.952 0 0 1-2.114-.23 7.61 7.61 0 0 0-2.053-.275h-.015.001c-.368 0-.734.03-1.102.091a2.305 2.305 0 0 0-.918.277c-.272.12-.502.291-.686.503l-.002.002c-.184.216-.277.507-.277.875 0 .491.032.859.093 1.104a.992.992 0 0 0 .319.553l.001.001c.184.123.414.214.69.277.307.061.674.154 1.104.275.397.123.642.216.734.277.153.03.328.048.508.048l.093-.002h-.005c.674 0 1.347-.062 2.021-.184a8.6 8.6 0 0 1 1.974-.23h.002c.336 0 .658.077.965.23.306.122.627.184.965.184.368 0 .72-.032 1.056-.093.338-.091.69-.138 1.058-.138.397 0 .718.123.965.368.245.246.429.538.55.875.154.336.261.691.322 1.059s.091.659.091.875a1.28 1.28 0 0 1-.277.785l.002-.003c-.143.2-.229.45-.229.719v.017-.001c0 .4.077.768.229 1.104.184.339.275.693.275 1.061 0 .336-.198.598-.597.782a5.552 5.552 0 0 1-1.4.32l-.024.002a9.118 9.118 0 0 1-1.608.139c-.52.03-.902.045-1.149.045h-.182l-1.102-.322h-.046c-.429 0-.827.061-1.195.184a3.003 3.003 0 0 1-1.165.231h-.03.001-.036c-.284 0-.555-.051-.807-.143l.016.005a3.323 3.323 0 0 0-.79-.093h-.039.002-.036c-.284 0-.555.051-.807.143l.016-.005a1.697 1.697 0 0 1-.777.186h-.004l-.044.001a1.54 1.54 0 0 1-.744-.19l.008.004a1.82 1.82 0 0 0-.7-.138h-.038.002zm30.888 0c-.338 0-.659.032-.965.093a3.282 3.282 0 0 1-.95.138h-.016.001c-.522 0-.92-.077-1.195-.23a1.437 1.437 0 0 1-.64-.546l-.003-.006a2.402 2.402 0 0 1-.228-.867v-1.112c0-.216.014-.4.045-.554.03-.184.046-.368.046-.552v-.027a.751.751 0 0 0-.14-.437l.002.002a1.338 1.338 0 0 1-.093-.495v-.013.001c0-.214.062-.414.184-.598a.91.91 0 0 0 .23-.598c0-.245-.03-.491-.093-.736a3.713 3.713 0 0 1-.091-.829c0-.246.03-.491.091-.736.062-.246.093-.493.093-.738a3.875 3.875 0 0 0-.144-1.04l.007.027a4.348 4.348 0 0 1 .006-2.195l-.007.03c.091-.368.138-.736.138-1.104s-.138-.8-.414-1.29a12.78 12.78 0 0 0-1.032-1.549l.022.029a15.132 15.132 0 0 0-1.165-1.539l.016.019c-.398-.49-.72-.89-.965-1.197a6.396 6.396 0 0 1-.948-1.434l-.017-.038a9.83 9.83 0 0 0-.893-1.599l.021.033a29.244 29.244 0 0 1-.62-.82l-.07-.1-.736-1.013a8.583 8.583 0 0 0-.788-1.022l.007.008a7.061 7.061 0 0 0-.69-.831l.002.002c-.154-.122-.398-.414-.736-.874a30.859 30.859 0 0 1-1.01-1.474c.015.064-.259-.402-.53-.87l-.297-.557c-.245-.461-.368-.752-.368-.875 0-.307.123-.507.368-.598.245-.093.52-.138.827-.138.366 0 .704.045 1.01.138.338.061.674.091 1.011.091s.627-.077.872-.229a1.61 1.61 0 0 1 .92-.277c.245 0 .459.016.643.046.214.03.443.045.688.045.277 0 .522-.016.736-.045.245-.032.49-.048.734-.048.275 0 .536.078.781.232.245.123.506.184.781.184.154 0 .291-.016.414-.046.136-.057.293-.091.459-.091.368 0 .674.107.918.322s.445.475.597.784c.184.275.322.566.414.874.122.307.229.568.322.784.214.429.413.704.597.827.184.093.352.2.506.323.154.091.291.275.413.552.154.245.291.72.414 1.427.061.184.198.445.413.784.245.306.506.459.781.459.184 0 .445-.246.781-.736.368-.491.75-1.045 1.149-1.658.429-.645.843-1.259 1.24-1.842.429-.584.766-.968 1.011-1.152l.413-.829c.154-.245.322-.429.506-.552.184-.154.414-.261.69-.323.306-.091.72-.138 1.24-.138.245 0 .459.046.643.138.214.062.445.093.69.093s.459-.016.643-.046a2.482 2.482 0 0 1 1.349.004l-.018-.004a4.132 4.132 0 0 0 1.265-.003l-.024.003c.182-.061.397-.091.643-.091.55 0 1.056.03 1.515.091s.995.077 1.608.046c.184 0 .398.091.643.277v.368c0 .429-.138.768-.413 1.013-.276.277-.546.562-.808.854l-.019.021a.743.743 0 0 0-.23.648V3.82a.807.807 0 0 1-.139.693l.001-.002a5.371 5.371 0 0 1-.955 1.005l-.01.008a4.128 4.128 0 0 0-.467.329l.008-.006c-.184.15-.349.3-.505.459l-.001.001a2.99 2.99 0 0 0-.314.49l-.008.017c-.122.245-.261.538-.413.875l-.459.92a9.363 9.363 0 0 1-.347.596l.025-.043c-.304.47-.607.876-.934 1.26l.014-.017-1.01 1.197a1.473 1.473 0 0 1-.543.411l-.009.004c-.234.11-.422.284-.547.5l-.003.006a1.498 1.498 0 0 0-.138.694v-.003c0 .245-.016.445-.046.598a.585.585 0 0 1-.229.367l-.002.001-.322.323c-.129.173-.234.308-.342.441l.021-.026a.925.925 0 0 0-.229.549v.003c0 .032-.03.077-.093.138a.362.362 0 0 0-.045.138v.002a84.97 84.97 0 0 1-1.011.69c-.245.186-.368.461-.368.829 0 .184.03.368.093.554.058.153.092.331.092.516v.038-.002c0 .461-.077.936-.229 1.427-.117.43-.184.925-.184 1.435v.041-.002c0 .522.077 1.074.229 1.658.184.552.277 1.09.277 1.611 0 .43-.062.845-.184 1.243-.123.4-.184.814-.184 1.243 0 .184.014.368.046.552.058.145.091.314.091.491v.018-.001.014a.917.917 0 0 1-.094.405l.002-.005c-.03.117-.047.251-.047.389v.027-.001c0 .214.03.429.091.645.093.214.154.414.184.598v.046c0 .461-.168.782-.506.966-.306.214-.688.352-1.149.414a5.033 5.033 0 0 1-1.378.093h-1.244a2.11 2.11 0 0 1-.882-.191l.013.005a2.293 2.293 0 0 0-.79-.138h-.038.002z"/></symbol><symbol id="icon-widgets" viewBox="0 0 32 32"><path d="m21.333 6.9 3.773 3.773-3.773 3.773-3.773-3.773L21.333 6.9zm-10.213.64v5.333H5.787V7.54h5.333zm13.333 13.333v5.333H19.12v-5.333h5.333zm-13.333 0v5.333H5.787v-5.333h5.333zM21.333 3.127l-7.547 7.533 7.547 7.547 7.547-7.547-7.547-7.533zm-7.546 1.746H3.12V15.54h10.667V4.873zM27.12 18.207H16.453v10.667H27.12V18.207zm-13.333 0H3.12v10.667h10.667V18.207z"/></symbol><symbol id="icon-statistic" viewBox="0 0 62 32"><path fill="none" stroke="#a9c2cb" style="stroke:var(--color1,#a9c2cb)" stroke-miterlimit="10" stroke-width=".653" d="M61.878.179H.163v31.638h61.714V.179zm-55.434 0v31.638M13.609.179v31.638M20.778.179v31.638M27.943.179v31.638M35.109.179v31.638M42.277.179v31.638M49.443.179v31.638M56.608.179v31.638"/><path fill="none" stroke="#a9c2cb" style="stroke:var(--color1,#a9c2cb)" stroke-miterlimit="10" stroke-width=".725" d="M61.878.179H.163m61.715 4.52H.163m61.715 4.52H.163m61.715 4.521H.163m61.715 4.52H.163m61.715 4.517H.163m61.715 4.521H.163m61.715 4.52H.163"/><path fill="none" stroke="#000" style="stroke:var(--color2,#000)" stroke-miterlimit="10" stroke-width=".653" d="M56.608 8.947H42.251l-14.239 4.728-7.348 13.496-7.049-8.94-7.172 8.94"/><path d="M7.364 27.167a.92.92 0 0 1-1.84 0 .92.92 0 0 1 1.84 0zM13.616 19.154a.92.92 0 0 0 0-1.84.92.92 0 0 0-.002 1.84h.001zM21.588 27.167v.007a.922.922 0 0 1-1.576.65.923.923 0 1 1 1.577-.657zM28.931 13.675a.92.92 0 0 1-1.838 0 .92.92 0 0 1 1.838 0zM42.251 9.866h.025a.92.92 0 0 0 0-1.84h-.026.001a.92.92 0 0 0 0 1.84zM57.531 8.947v.027a.923.923 0 1 1-1.846 0v-.023.001a.924.924 0 0 1 1.846-.007v.001z"/></symbol><symbol id="icon-statistic-1" viewBox="0 0 32 32"><path fill="#171e27" style="fill:var(--color3,#171e27)" opacity=".6" d="M16.02 16.002.84 11.059C1.892 7.746 3.909 4.99 6.558 3.042l.044-.031A15.59 15.59 0 0 1 16.03 0h-.009v16.002z"/><path fill="#171e27" style="fill:var(--color3,#171e27)" opacity=".8" d="m16.02 16.002 9.391 12.943a15.834 15.834 0 0 1-9.391 3.056c-.882 0-1.748-.072-2.591-.209l.092.012A16.013 16.013 0 0 1 3.127 25.45l-.031-.045A15.416 15.416 0 0 1-.009 16.09c0-1.801.307-3.531.871-5.14l-.033.109 15.191 4.943z"/><path fill="#a9c2cb" style="fill:var(--color1,#a9c2cb)" opacity=".6" d="m16.02 16.002 9.392-12.945a16.116 16.116 0 0 1 4.191 4.515l.039.068c1.478 2.379 2.354 5.266 2.354 8.357 0 1.327-.161 2.615-.465 3.848l.023-.11a15.99 15.99 0 0 1-2.611 5.668 15.372 15.372 0 0 1-3.488 3.51l-.045.031-9.391-12.942z"/><path fill="#171e27" style="fill:var(--color3,#171e27)" opacity=".2" d="M16.02 16.002V0l.235-.002c3.451 0 6.636 1.143 9.195 3.071l-.039-.028-9.392 12.961z"/></symbol><symbol id="icon-astronomy" viewBox="0 0 32 32"><path fill="#a9c2cb" style="fill:var(--color1,#a9c2cb)" d="M7.385 0h17.231a7.385 7.385 0 0 1 7.385 7.385v17.231a7.385 7.385 0 0 1-7.385 7.385H7.385A7.385 7.385 0 0 1 0 24.616V7.385A7.385 7.385 0 0 1 7.385 0z"/><path fill="#fff" style="fill:var(--color4,#fff)" d="M10.074 10.074c.204-.203.54-.336 1.065-.321.527.015 1.19.178 1.953.506.609.261 1.263.617 1.938 1.061a22.705 22.705 0 0 0-1.963 1.747 22.558 22.558 0 0 0-1.713 1.917l-.035.046a12.71 12.71 0 0 1-1.061-1.938c-.327-.762-.491-1.425-.506-1.953-.015-.526.118-.862.322-1.065zm3.465-.86c-.841-.36-1.649-.577-2.368-.597-.721-.02-1.404.159-1.9.654s-.674 1.18-.654 1.9c.02.719.236 1.527.597 2.368.335.782.804 1.614 1.389 2.461a14.332 14.332 0 0 0-1.389 2.461c-.361.841-.577 1.649-.597 2.368-.02.721.158 1.404.654 1.9s1.18.674 1.9.654c.719-.02 1.527-.236 2.368-.597A14.332 14.332 0 0 0 16 21.397a14.332 14.332 0 0 0 2.461 1.389c.841.361 1.649.577 2.368.598.721.02 1.404-.159 1.9-.654s.674-1.18.654-1.9c-.02-.719-.237-1.527-.597-2.368a14.288 14.288 0 0 0-1.389-2.46 14.415 14.415 0 0 0 1.39-2.462c.36-.841.577-1.649.597-2.368.02-.721-.159-1.404-.654-1.9s-1.18-.674-1.9-.654c-.719.02-1.527.236-2.368.597-.782.335-1.614.804-2.461 1.389a14.332 14.332 0 0 0-2.461-1.389zm.332 4.657a21.004 21.004 0 0 1 2.08-1.828l.049-.037c.782.6 1.477 1.21 2.129 1.864l.001.001a21.004 21.004 0 0 1 1.828 2.08l.036.049c-.6.782-1.21 1.477-1.864 2.129l-.001.001a21.004 21.004 0 0 1-2.08 1.828l-.049.036c-.783-.6-1.477-1.21-2.129-1.864l-.001-.001a21.004 21.004 0 0 1-1.828-2.08L12.005 16c.6-.783 1.21-1.477 1.864-2.129l.001-.001zm5.062-.804a22.25 22.25 0 0 0-1.963-1.747c.675-.444 1.329-.8 1.938-1.061.762-.327 1.425-.491 1.953-.506.526-.015.862.119 1.065.322s.337.539.322 1.065c-.015.527-.179 1.19-.506 1.953a12.596 12.596 0 0 1-1.062 1.938l-.035-.046a22.255 22.255 0 0 0-1.713-1.917zm-.001 5.865a22.558 22.558 0 0 0 1.713-1.917l.035-.046c.444.676.801 1.33 1.062 1.938.327.763.491 1.426.506 1.953.015.526-.118.862-.322 1.065s-.539.337-1.065.322c-.527-.015-1.19-.178-1.953-.506a12.624 12.624 0 0 1-1.938-1.061 22.705 22.705 0 0 0 1.963-1.747zm-5.864 0a22.558 22.558 0 0 0 1.917 1.713l.046.035a12.73 12.73 0 0 1-1.938 1.062c-.763.327-1.426.491-1.953.506-.526.015-.862-.118-1.065-.322s-.337-.539-.322-1.065c.015-.527.179-1.19.506-1.953a12.71 12.71 0 0 1 1.061-1.938 22.705 22.705 0 0 0 1.747 1.963zM16 17.515a1.515 1.515 0 1 1 0-3.03 1.515 1.515 0 1 1 0 3.03z"/></symbol><symbol id="icon-technology" viewBox="0 0 32 32"><path fill="#a9c2cb" style="fill:var(--color1,#a9c2cb)" d="M7.385 0h17.231a7.385 7.385 0 0 1 7.385 7.385v17.231a7.385 7.385 0 0 1-7.385 7.385H7.385A7.385 7.385 0 0 1 0 24.616V7.385A7.385 7.385 0 0 1 7.385 0z"/><path fill="#fff" style="fill:var(--color4,#fff)" d="M17.742 12.752a3.585 3.585 0 0 0-1.156-.389l-.021-.003V8.615c3.647.283 6.537 3.173 6.818 6.794l.002.025H19.64a3.68 3.68 0 0 0-1.879-2.673l-.019-.01zm-5.84-2.911a7.314 7.314 0 0 1 3.53-1.224l.025-.002v3.745a3.677 3.677 0 0 0-3.116 3.63c0 .818.267 1.573.719 2.183l-.007-.01-2.649 2.648a7.36 7.36 0 0 1-1.788-4.822 7.387 7.387 0 0 1 3.26-6.132l.026-.017zm-.714 11.755a7.36 7.36 0 0 0 4.822 1.788 7.364 7.364 0 0 0 4.679-1.668l-.013.01-3.333-2.317a3.682 3.682 0 0 1-2.424.086l.026.007a3.693 3.693 0 0 1-1.118-.562l.01.007-2.649 2.649zm8.214-4.202c.113-.274.193-.559.237-.85h3.745a7.381 7.381 0 0 1-1.893 4.41l.006-.006-3.109-2.161a3.682 3.682 0 0 0 1.005-1.368l.009-.024z"/></symbol><symbol id="icon-scope" viewBox="0 0 32 32"><path fill="#a9c2cb" style="fill:var(--color1,#a9c2cb)" d="M7.385 0h17.231a7.385 7.385 0 0 1 7.385 7.385v17.231a7.385 7.385 0 0 1-7.385 7.385H7.385A7.385 7.385 0 0 1 0 24.616V7.385A7.385 7.385 0 0 1 7.385 0z"/><path fill="#fff" style="fill:var(--color4,#fff)" d="M19.92 8.767a1.149 1.149 0 0 0-.4 1.542l1.823 3.258c.302.54.971.725 1.494.414s.702-1.002.4-1.542L21.415 9.18a1.074 1.074 0 0 0-1.494-.412zm-1.476 1.749-5.421 3.231c-.697.415-.936 1.335-.534 2.055l.104.186-.014.008.002-.001-2.687 1.601-.279-.498a.533.533 0 0 0-.93.524l-.001-.003 1.094 1.955a.535.535 0 1 0 .931-.524l.001.003-.294-.524 2.699-1.608.104.185c.402.72 1.295.967 1.992.551l.975-.582-2.837 5.532a.534.534 0 1 0 .948.49l.001-.003 3.171-6.182 3.171 6.182a.533.533 0 1 0 .949-.49l.001.003-3.438-6.704 2.487-1.482a2.234 2.234 0 0 1-.223-.321l-.006-.011-1.823-3.259a2.185 2.185 0 0 1-.14-.299l-.005-.015z"/></symbol><symbol id="icon-note" viewBox="0 0 32 32"><path fill="#a9c2cb" style="fill:var(--color1,#a9c2cb)" d="M7.385 0h17.231a7.385 7.385 0 0 1 7.385 7.385v17.231a7.385 7.385 0 0 1-7.385 7.385H7.385A7.385 7.385 0 0 1 0 24.616V7.385A7.385 7.385 0 0 1 7.385 0z"/><path fill="#fff" style="fill:var(--color4,#fff)" d="M14.4 8.615h2.954a1.477 1.477 0 1 1 0 2.954H14.4a1.477 1.477 0 1 1 0-2.954zm-2.585 1.477h-.123a2.462 2.462 0 0 0-2.462 2.462v8.369a2.462 2.462 0 0 0 2.462 2.462h8.369a2.462 2.462 0 0 0 2.462-2.462v-8.369a2.462 2.462 0 0 0-2.462-2.462h-.123a2.585 2.585 0 0 1-2.585 2.585h-2.954a2.585 2.585 0 0 1-2.585-2.585zm.647 4.431c0-.255.207-.462.462-.462h5.908a.462.462 0 0 1 0 .924h-5.908a.462.462 0 0 1-.462-.462zm.461 2.492a.462.462 0 0 0 0 .924h5.908a.462.462 0 0 0 0-.924h-5.908zm-.461 3.416c0-.255.207-.462.462-.462h2.954a.462.462 0 0 1 0 .924h-2.954a.462.462 0 0 1-.462-.462z"/></symbol><symbol id="icon-part" viewBox="0 0 29 32"><path fill="#a9c2cb" style="fill:var(--color1,#a9c2cb)" d="M10.971 0h7.314c6.059 0 10.971 4.912 10.971 10.971v7.314c0 6.059-4.912 10.971-10.971 10.971h-7.314C4.912 29.256 0 24.344 0 18.285v-7.314C0 4.912 4.912 0 10.971 0z"/><path fill="#fff" style="fill:var(--color4,#fff)" d="M16.439 7.54a7.357 7.357 0 0 1 5.267 5.227l.011.051c.25.978-.592 1.81-1.603 1.81h-3.657a1.83 1.83 0 0 1-1.829-1.829V9.142c0-1.01.832-1.852 1.81-1.603zm-9.125 7.82v-.001a6.583 6.583 0 0 1 6.2-6.572l.018-.001v4.379a2.56 2.56 0 0 0 2.56 2.56h4.379a6.583 6.583 0 0 1-13.157-.346v-.021.001z"/></symbol><symbol id="icon-timer" viewBox="0 0 29 32"><path fill="#a9c2cb" style="fill:var(--color1,#a9c2cb)" d="M10.971 0h7.314c6.059 0 10.971 4.912 10.971 10.971v7.314c0 6.059-4.912 10.971-10.971 10.971h-7.314C4.912 29.256 0 24.344 0 18.285v-7.314C0 4.912 4.912 0 10.971 0z"/><path fill="#fff" style="fill:var(--color4,#fff)" d="M12.621 9.008a7.199 7.199 0 0 1 2.001-.277h.007c.697 0 1.37.097 2.008.277a.686.686 0 0 0 .378-1.318l-.005-.001a8.542 8.542 0 0 0-2.376-.329h-.005a8.71 8.71 0 0 0-2.381.329.687.687 0 0 0 .203 1.341c.061 0 .12-.008.175-.023l-.005.001zm8.225 6.718a6.217 6.217 0 0 1-12.434 0 6.217 6.217 0 0 1 12.434 0zm-5.669-3.292a.55.55 0 0 0-1.098 0v2.706a1.097 1.097 0 1 0 1.102.003l-.005-.003v-2.706z"/></symbol><symbol id="icon-heart" viewBox="0 0 29 32"><path fill="#a9c2cb" style="fill:var(--color1,#a9c2cb)" d="M10.971 0h7.314c6.059 0 10.971 4.912 10.971 10.971v7.314c0 6.059-4.912 10.971-10.971 10.971h-7.314C4.912 29.256 0 24.344 0 18.285v-7.314C0 4.912 4.912 0 10.971 0z"/><path fill="#fff" style="fill:var(--color4,#fff)" d="m15.188 9.291-.56.601-.56-.601c-1.545-1.66-4.05-1.66-5.595 0s-1.545 4.352 0 6.011l5.036 5.411a1.506 1.506 0 0 0 2.237.001l.001-.001 5.036-5.411c1.545-1.659 1.545-4.352 0-6.011s-4.05-1.66-5.595 0z"/></symbol><symbol id="icon-player" viewBox="0 0 31 32"><path fill="#a9c2cb" style="fill:var(--color1,#a9c2cb)" d="M9.366 0h12.488a9.366 9.366 0 0 1 9.366 9.366v12.488a9.366 9.366 0 0 1-9.366 9.366H9.366A9.366 9.366 0 0 1 0 21.854V9.366A9.366 9.366 0 0 1 9.366 0z"/><path fill="#fff" style="fill:var(--color4,#fff)" d="M7.805 15.614c0-4.308 3.503-7.81 7.805-7.81s7.805 3.501 7.805 7.81c0 4.299-3.503 7.8-7.805 7.8s-7.805-3.501-7.805-7.8zm10.668.79a3.23 3.23 0 0 0 .211-.241.952.952 0 0 0-.015-1.137l-.055-.06-.002-.003c-.05-.054-.122-.133-.191-.201-.617-.663-2.23-1.748-3.074-2.078-.128-.052-.452-.165-.625-.173-.165 0-.324.037-.475.113a.983.983 0 0 0-.419.46l-.002.006a5.05 5.05 0 0 0-.136.549c-.084.445-.129 1.167-.129 1.965 0 .762.045 1.453.113 1.905a.73.73 0 0 1 .019.084c.031.153.094.471.162.601a.947.947 0 0 0 .836.512h.03c.226-.008.701-.203.701-.211.798-.332 2.373-1.363 3.006-2.048l.045-.045z"/><symbol id="icon-astroscale-logo" viewBox="0 0 101 32"><path d="M15.04 3.813c-.329.082-.667.485-.951 1.152-.155.366-1.179 2.871-2.286 5.577-1.097 2.706-2.03 4.946-2.066 4.983-.091.091-1.006-.923-1.518-1.701-1.335-2.021-.896-3.529 1.051-3.657a4.84 4.84 0 0 1 1.225.101l.576.137.128-.32c.183-.43.174-.457-.128-.622-.539-.274-3.017-1.051-3.803-1.189-3.703-.64-4.69.96-2.505 4.059.576.823 2.386 2.706 3.465 3.602.43.357.832.695.905.759.101.091-.137.75-1.435 3.941-.859 2.112-1.609 3.95-1.655 4.078l-.101.247h6.272l1.627-4.937.229.155c.823.539 3.163 1.929 4.169 2.469 3.301 1.774 6.135 2.725 7.177 2.414.494-.146.594-.402.466-1.143-.082-.439-.896-2.606-1.81-4.791-.183-.439-.037-.311.768.695 1.856 2.304 2.642 3.913 2.569 5.239-.037.704-.21 1.015-.722 1.317-.43.256-1.673.238-2.734-.037-1.755-.457-4.8-1.847-7.717-3.529-1.317-.75-1.609-.85-1.609-.558 0 .155 2.258 1.81 3.721 2.725 2.816 1.774 5.989 3.072 7.945 3.255 2.514.238 3.648-.731 3.2-2.743-.43-1.92-2.094-4.325-4.864-7.022l-1.362-1.326-2.551-6.263c-1.39-3.447-2.633-6.418-2.761-6.601a.888.888 0 0 0-.558-.43c-.347-.101-2.002-.119-2.359-.037zm2.578 13.376c1.234 3.767 1.353 4.206 1.179 4.151-.421-.119-2.514-1.17-3.529-1.774l-1.079-.631.978-2.981c.53-1.637.987-2.971 1.015-2.971s.677 1.893 1.435 4.206zM82.853 13.056l.027 5.376.238.448c.347.695.878.978 1.874 1.033.786.046 1.646-.082 2.24-.311l.329-.137-.119-.704c-.247-1.417-.21-1.307-.421-1.198-.11.055-.393.11-.64.11-.347.009-.494-.037-.649-.192l-.201-.21-.027-4.791-.027-4.8h-2.651l.027 5.376zM33.344 8.375c-.037.037-.064.658-.064 1.371v1.307l-1.051.055-.027.978-.027.987h1.088l.037 2.624c.037 2.834.055 2.962.558 3.557.658.777 2.167.923 3.803.366.366-.119.686-.247.704-.265.064-.055-.43-2.075-.494-2.075-.037 0-.229.064-.43.137-.512.183-.896.165-1.179-.055l-.238-.183v-4.105h1.737v-2.011h-1.728l-.027-1.353-.027-1.344-1.289-.027c-.704-.009-1.307.009-1.344.037z"/><path d="M26.267 11.154c-1.381.457-2.286 1.774-2.085 3.063.137.933.786 1.426 2.688 2.03 1.627.512 1.883.631 2.011.914s-.027.658-.357.832c-.558.293-2.112-.064-3.154-.722-.421-.265-.594-.32-.594-.201 0 .046.622.713 1.39 1.49l1.39 1.417.594-.018c1.115-.046 1.893-.311 2.523-.869.942-.823 1.106-2.441.338-3.291-.448-.494-1.125-.814-2.734-1.298-1.408-.43-1.673-.594-1.673-1.024 0-.265.274-.558.603-.64.494-.128 1.253.037 2.048.439.43.219.805.393.841.393.073 0 .987-1.39.987-1.499 0-.137-.923-.704-1.509-.923-.795-.302-2.505-.347-3.31-.091zM43.675 11.154c-.567.219-1.161.704-1.518 1.243l-.283.43v-1.774l-2.423.055v8.686h2.651l.027-2.661.018-2.67.366-.32c.357-.329 1.326-.704 1.819-.704.128 0 .329-.027.448-.055.192-.055.201-.091.201-1.234v-1.179h-.43c-.247.009-.64.082-.878.183zM48.375 11.118c-1.472.393-2.615 1.527-3.063 3.045-.183.613-.192 1.893-.018 2.542a4.395 4.395 0 0 0 3.255 3.136c.613.146 1.893.146 2.505.009 1.39-.329 2.587-1.353 3.063-2.624.987-2.633-.375-5.44-2.962-6.117-.677-.174-2.121-.174-2.779.009zm1.856 2.148c1.134.283 1.737 1.646 1.344 3.017-.32 1.152-1.509 1.746-2.523 1.28-.777-.366-1.161-1.042-1.17-2.085 0-.558.037-.75.265-1.179.293-.567.549-.805 1.097-.997.439-.155.503-.165.987-.037zM57.6 11.145c-.649.21-.85.32-1.298.722-.704.64-1.051 1.746-.805 2.615.219.805 1.033 1.317 3.008 1.893 1.344.393 1.609.567 1.609 1.042 0 .329-.037.384-.32.521-.64.329-1.682.137-2.917-.53-.603-.329-.786-.393-.85-.293-.037.064-.247.421-.448.786-.357.631-.366.677-.219.841.256.283 1.371.823 2.121 1.015.997.256 2.414.256 3.246-.009 1.216-.375 1.92-1.189 1.975-2.295.055-.887-.027-1.189-.43-1.655-.448-.503-1.189-.859-2.752-1.307-1.17-.338-1.573-.539-1.627-.814-.201-1.024 1.362-1.179 2.853-.283.293.174.558.32.594.32.027 0 .274-.347.549-.777l.485-.777-.21-.183c-.402-.329-1.234-.722-1.829-.869-.795-.183-2.103-.174-2.734.037zM66.807 11.109c-1.152.32-2.213 1.134-2.734 2.112-.704 1.307-.704 3.163-.009 4.443.53.978 1.472 1.746 2.578 2.094.832.265 2.277.265 3.127 0 1.015-.32 1.966-1.042 2.377-1.801.155-.293.165-.293-1.253-.713l-1.143-.347-.347.32c-.96.869-2.267.603-2.862-.567-.439-.869-.311-2.231.274-2.871.302-.338.859-.558 1.39-.558.567.009.823.11 1.253.512l.283.274 1.179-.338c.64-.192 1.207-.384 1.253-.421.201-.174-.805-1.289-1.591-1.755a4.56 4.56 0 0 0-.96-.375c-.658-.174-2.194-.183-2.816-.009zM75.438 11.163c-.686.174-2.021.777-2.021.905 0 .037.165.421.366.859l.366.786.485-.274c.768-.43 1.481-.64 2.176-.64 1.17 0 1.701.393 1.792 1.344.055.475.046.512-.11.448-.704-.265-2.313-.347-3.063-.146-1.509.402-2.469 1.445-2.469 2.706 0 1.463.987 2.56 2.487 2.77 1.143.165 2.231-.192 3.127-1.006l.485-.448.055.375c.055.43.338.777.768.96.311.137 1.17.165 1.664.073l.283-.064v-1.125c0-.905-.027-1.134-.128-1.134-.32 0-.375-.274-.43-2.139-.046-1.6-.073-1.902-.256-2.35-.384-1.006-1.216-1.673-2.395-1.957-.832-.192-2.341-.174-3.182.055zm2.944 4.819c.229.101.247.146.247.603 0 .603-.238.942-.887 1.253-.869.421-1.92.21-2.194-.439-.256-.613 0-1.125.704-1.445.366-.165 1.691-.146 2.13.027zM90.981 11.118c-1.938.521-3.209 2.249-3.209 4.379.009 1.298.329 2.176 1.152 3.054.869.942 2.039 1.408 3.52 1.408 1.371-.009 2.441-.393 3.291-1.189.466-.439.869-1.006.786-1.097-.027-.027-.521-.183-1.088-.347l-1.033-.293-.302.347c-1.024 1.189-3.227.704-3.465-.777l-.055-.329h6.409l.064-.439c.064-.485-.064-1.435-.274-2.039-.457-1.298-1.609-2.322-3.035-2.688-.658-.174-2.103-.165-2.761.009zm2.514 2.103c.347.283.622.704.722 1.152l.064.256h-3.785l.064-.256c.256-1.042.878-1.509 1.938-1.463.567.027.695.064.997.311z"/></symbol><symbol id="icon-boeing-logo" viewBox="0 0 295 32"><path d="M274.1 10.7c.3.1.4.1.5.1h16.1c.4 0 .8-.3 1-.6.9-1.1 1.7-2.3 2.6-3.4 1-1.4 1.3-3 .4-4.6-.8-1.5-2.1-2.3-3.9-2.3h-28.1c-4.5 0-8.3 1.8-11.1 5.4-5 6.5-9.9 13-14.8 19.6-1 1.4-1.2 2.9-.4 4.5s2.1 2.3 3.9 2.3h28.3c4.5 0 8.1-1.9 11-5.3.7-.8 1.4-1.6 1.9-2.4 1.2-2.1 2.8-3.2 5.2-2.6.6.1 1-.2 1.4-.7 1.3-1.7 2.6-3.4 3.9-5.2.1-.2.3-.4.4-.7h-20.7c-.3 0-.8.3-1 .6-2 2.7-4 5.3-6 8-.9 1.3-2.1 1.9-3.7 1.9-1.4 0-2.9.1-4.3 0-.5 0-1.1-.3-1.3-.7-.2-.3 0-1.1.2-1.4 3.8-5 7.5-10.1 11.3-15.1.7-1 1.8-1.5 3-1.5 1.6 0 3.2-.1 4.8 0 .4 0 1.1.3 1.2.6.2.4 0 1-.2 1.4-.5.8-1 1.4-1.6 2.1zM245.4 0H235c-.7 0-1.1.2-1.6.8l-10.8 14.4c-.2.3-.5.6-.8 1-.1-.4-.2-.6-.3-.8-1.1-4.8-2.3-9.6-3.3-14.4-.2-.7-.4-1-1.2-1h-11.5c-.8 0-1.3.2-1.8.9-7.5 10-15 19.9-22.5 29.9-.2.3-.4.6-.7.9.4 0 .7.1.9.1h9.5c.6 0 1-.2 1.4-.7 3.6-4.8 7.1-9.5 10.7-14.3.2-.3.5-.6.8-1 .1.5.3.9.3 1.2 1.1 4.6 2.1 9.2 3.2 13.8.2.8.4 1 1.2 1h11.8c.6 0 1.1-.2 1.5-.7 4.6-6.2 9.3-12.3 13.9-18.5 3.3-4.1 6.4-8.2 9.7-12.6zm-79.6.1H131.7c-.4 0-1 .3-1.3.7-7.6 10-15.1 20.1-22.7 30.1-.2.3-.3.5-.6.9h1.4c10.1 0 20.2-.1 30.4.1 2.2 0 3.7-.4 4.8-2.4.8-1.4 2-2.7 3.1-4.2h-17.4c.3-.4.4-.7.6-.9 1.1-1.5 2.3-3.1 3.4-4.6.4-.6.9-.8 1.6-.8h15.6c.7 0 1.1-.2 1.5-.7 1.3-1.7 2.6-3.4 3.9-5.2l.4-.8H139c1.3-1.7 2.5-3.3 3.6-4.8.5-.7 1-1 1.9-1H160c.4 0 .9-.1 1.1-.4 1.6-1.9 3.1-3.9 4.7-6zM152 31.8h16.2c.8 0 1.2-.3 1.7-.9 7.5-10 15-19.9 22.5-29.9.2-.3.4-.6.7-1h-16.3c-.7 0-1.1.3-1.5.8-7.5 10-15.1 20-22.6 30-.2.3-.4.6-.7 1zM50.8 16.7c1.7 2.3 1.7 3.4 0 5.6-1 1.3-1.9 2.6-2.9 3.8-2.9 3.7-6.7 5.7-11.5 5.7-11.8.2-23.8 0-35.7 0-.2 0-.4 0-.8-.1.3-.4.5-.7.7-1 7.5-10 15-19.9 22.5-29.9.5-.5 1-.8 1.8-.8h33.7c1.9 0 3.4.6 4.3 2.3s.5 3.4-.7 4.9c-1.1 1.5-2.2 3-3.4 4.4-1.8 2.3-4.2 3.9-7 4.7-.3.1-.6.3-1 .4zm-28.7 8.5c2.8 0 5.4.1 7.9-.1.8-.1 1.8-.8 2.4-1.5.8-.7 1.3-1.6 1.9-2.5.3-.4.5-1.1.3-1.4s-.8-.6-1.3-.7c-1.8-.1-3.6 0-5.5-.1-.9 0-1.4.3-1.9 1l-2.4 3.3c-.3.6-.8 1.2-1.4 2zm9.7-12.8h5c4.4 0 4.4 0 6.9-3.5 0 0 .1-.1.1-.2.1-.5.4-1.1.2-1.4s-.8-.7-1.3-.7c-2-.1-4 0-5.9 0-.3 0-.6.1-.8.3-1.4 1.7-2.7 3.5-4.2 5.5zM76.5 32c-4.7 0-9.7-.2-14.4-.2-1.9 0-3.4-.6-4.3-2.3-.9-1.8-.5-3.4.7-4.9 4.7-6.1 9.3-12.3 13.9-18.5 3.1-4 7.2-6.1 12.3-6.1h27.2c1.9 0 3.4.6 4.2 2.3s.5 3.3-.7 4.8c-4.7 6.2-9.3 12.4-14 18.6-3 3.9-7 6-11.9 6-4.5.1-8.6.3-13 .3zm3.8-6.7h2.2c1.3 0 2.4-.5 3.3-1.6 3.8-5 7.5-10 11.3-15 .3-.4.4-1.1.3-1.4-.2-.4-.8-.7-1.3-.7-1.6-.1-3.1 0-4.7 0-1.2 0-2.2.5-2.9 1.4-3.9 5.1-7.7 10.2-11.5 15.3-.2.3-.3 1-.2 1.3s.8.6 1.2.6c.8.1 1.6.1 2.3.1z"/></symbol><symbol id="icon-nasa-logo" viewBox="0 0 115 32"><path d="M60.971 31.174h15.715c2.348 0 4.275-.964 5.841-2.891 1.505-1.866 2.288-4.094 2.288-6.622 0-5.118-6.563-8.731-9.093-8.731h-8.61c-.662 0-1.205-.301-1.626-.782-.422-.542-.663-1.144-.663-1.867 0-.843.241-1.565.663-2.168.481-.602 1.083-.963 1.806-.963h16.137V.707H66.991c-2.951 0-5.239.904-6.865 2.649-1.444 1.626-2.168 3.793-2.168 6.383 0 2.529.724 4.757 2.168 6.562 1.626 1.987 3.553 3.012 5.902 3.012h9.936c.601 0 1.084.181 1.444.661.422.482.602 1.084.602 1.747 0 .783-.301 1.505-.783 2.108-.541.542-1.144.843-1.926.843H59.405l-.241-.422-5.961-19.147-.302-.602C51.456 1.55 49.048.106 45.736.106c-1.806 0-3.432.421-4.878 1.325-1.505.903-2.469 2.228-3.011 3.914l-8.009 25.77 7.286.061L44.47 8.235c.181-.723.602-1.084 1.144-1.084.301 0 .542.12.722.301.181.241.301.482.361.783l7.406 22.941 6.866-.001zM6.78 10.1v21.014H.036V7.812c0-3.011.723-5.118 2.288-6.382C3.528.526 5.335.045 7.863.045c2.047 0 3.793.602 5.359 1.746s2.589 2.709 3.131 4.636l4.395 15.474.723 2.108c.06.421.301.722.542.962.301.242.602.362.963.242.602-.06.904-.422.904-.964V.767h6.925v23.181c0 2.589-.602 4.517-1.866 5.902-1.204 1.385-3.011 2.108-5.419 2.108-2.108 0-3.854-.422-5.239-1.144-1.686-.843-2.77-2.168-3.252-3.915L9.971 9.257 9.61 8.113c-.121-.421-.361-.722-.662-1.024-.301-.241-.662-.301-1.023-.241s-.602.241-.843.602a2.082 2.082 0 0 0-.301 1.084V10.1zm107.78 21.074-7.827-26.072-.301-.602c-1.445-2.951-3.854-4.395-7.165-4.395-1.807 0-3.432.421-4.877 1.325-1.507.903-2.469 2.228-3.012 3.914l-8.008 25.77 7.285.061 7.346-22.941c.18-.723.602-1.084 1.144-1.084.301 0 .542.12.722.301.182.241.301.482.362.783l7.406 22.941 6.924-.001z"/></symbol><symbol id="icon-space-x-logo" viewBox="0 0 260 32"><path style="fill:var(--color2,#000)" d="M60.549 11.809H38.617l-.783.627V31.94h6.031v-7.363l.548-.548h16.136c4.073 0 5.953-1.096 5.953-3.916v-4.465c0-2.742-1.88-3.838-5.953-3.838zm0 7.207c0 1.331-.862 1.567-2.82 1.567H44.491l-.627-.548v-4.151l.548-.548h13.316c1.88 0 2.82.235 2.82 1.566v2.115zm17.075-3.525 5.248 7.676-.313.705H70.966l-2.977 3.682h17.232l1.253.705 2.663 3.682h6.971L80.834 11.575zm69.165 12.532V22.54l.627-.548h11.671v-3.447h-18.486v13.394h27.259v-3.447h-20.366zm-6.188-16.214h27.494v3.76h-27.494zm-30.626 3.603h22.167c-.313-2.82-2.115-3.603-6.501-3.603H109.74c-5.013 0-6.58.94-6.58 4.778V27.24c0 3.76 1.567 4.778 6.58 4.778h15.901c4.465 0 6.188-.862 6.345-3.76h-22.011l-.627-.627V15.882zm-87.024 4.23H6.894l-.47-.548v-3.447l.47-.392h21.697l.313-.705c-.705-1.88-2.663-2.82-6.188-2.82H7.598c-5.013 0-6.58.94-6.58 4.778v2.272c0 3.76 1.567 4.778 6.58 4.778h16.058l.47.47v3.603l-.392.548H.548S0 28.492 0 28.571c.392 2.663 2.193 3.368 6.501 3.368H22.95c5.013 0 6.658-.94 6.658-4.778v-2.742c0-3.76-1.645-4.778-6.658-4.778zm162.455-7.911h-9.086l-.47.94 10.026 7.363c1.88-1.097 3.995-2.193 6.188-3.29zm8.146 13.786 8.851 6.423h9.086l.392-.862-13.159-9.634c-1.723 1.331-3.525 2.663-5.17 4.073z"/><path style="fill:var(--color2,#000)" d="M184.074 31.94h-8.225l-.705-1.097c5.562-5.405 30.47-28.433 84.596-30.862 0 0-45.353 1.567-75.666 31.958z"/></symbol></symbol></defs></svg>